<svg xmlns="http://www.w3.org/2000/svg" xmlns:xlink="http://www.w3.org/1999/xlink" viewBox="0 0 463.6 250.06"><defs><style>.cls-1{fill:url(#linear-gradient);}.cls-2{fill:url(#linear-gradient-2);}.cls-3{fill:url(#linear-gradient-3);}.cls-4{fill:url(#linear-gradient-4);}.cls-5{fill:url(#linear-gradient-5);}.cls-6{fill:#e6e7e8;}</style><linearGradient id="linear-gradient" x1="90.61" y1="129.22" x2="386.95" y2="100.15" gradientUnits="userSpaceOnUse"><stop offset="0" stop-color="#939598"/><stop offset="0.11" stop-color="#939598"/><stop offset="0.33" stop-color="#bcbec0"/><stop offset="0.72" stop-color="#e6e7e8"/><stop offset="0.89" stop-color="#eaebeb"/><stop offset="1" stop-color="#f1f2f2"/></linearGradient><linearGradient id="linear-gradient-2" x1="365.56" y1="16.17" x2="128.51" y2="147.2" gradientUnits="userSpaceOnUse"><stop offset="0.21" stop-color="#f1f2f2"/><stop offset="0.52" stop-color="#e6e7e8"/><stop offset="0.7" stop-color="#d1d3d4"/><stop offset="0.89" stop-color="#bcbec0"/></linearGradient><linearGradient id="linear-gradient-3" x1="117.86" y1="97.68" x2="305.54" y2="7.47" gradientUnits="userSpaceOnUse"><stop offset="0" stop-color="#bcbec0"/><stop offset="0.11" stop-color="#d1d3d4"/><stop offset="0.33" stop-color="#d1d3d4"/><stop offset="0.72" stop-color="#e6e7e8"/><stop offset="0.89" stop-color="#eaebeb"/><stop offset="1" stop-color="#f1f2f2"/></linearGradient><linearGradient id="linear-gradient-4" x1="126.16" y1="73.76" x2="274.36" y2="28.63" gradientUnits="userSpaceOnUse"><stop offset="0" stop-color="#939598"/><stop offset="0.11" stop-color="#939598"/><stop offset="0.33" stop-color="#939598"/><stop offset="0.72" stop-color="#e6e7e8"/><stop offset="0.89" stop-color="#eaebeb"/><stop offset="1" stop-color="#f1f2f2"/></linearGradient><linearGradient id="linear-gradient-5" x1="126.88" y1="76.13" x2="275.08" y2="31" xlink:href="#linear-gradient-4"/></defs><g id="Layer_2" data-name="Layer 2"><g id="Layer_1-2" data-name="Layer 1"><polygon class="cls-1" points="264.37 93.45 270 90.2 275.63 86.94 281.27 83.69 286.9 80.44 292.54 77.19 298.18 73.93 303.8 70.68 309.44 67.43 309.44 47.91 303.8 51.16 298.18 54.41 292.54 57.68 286.9 60.93 281.27 64.18 275.63 67.43 270 70.68 270 70.69 264.37 73.94 258.73 77.19 253.09 80.44 247.47 83.69 241.83 86.95 236.19 90.2 236.19 174.78 241.83 171.52 247.47 168.27 253.09 165.02 258.73 161.77 264.37 158.51 270 155.26 275.63 152.01 281.27 148.76 286.9 145.51 292.54 142.24 298.18 138.99 303.8 135.74 309.44 132.49 309.44 112.97 303.8 116.22 298.18 119.47 292.54 122.73 286.9 125.98 281.27 129.23 275.63 132.48 270 135.74 264.37 138.99 253.09 145.49 253.09 99.95 264.37 93.45"/><polygon class="cls-2" points="218.74 83.7 218.74 83.69 213.1 80.44 207.46 77.19 201.83 73.94 196.19 70.69 196.19 70.68 190.55 67.43 184.93 64.18 179.29 60.93 173.65 57.68 168.02 54.43 162.38 51.16 156.75 47.91 156.75 67.43 162.38 70.68 168.02 73.94 173.65 77.19 179.29 80.44 184.93 83.69 190.55 86.94 196.19 90.2 201.83 93.45 207.46 96.7 213.1 99.95 213.1 112.97 207.46 109.72 201.83 106.47 196.19 103.22 190.55 99.95 184.93 96.7 179.29 93.45 173.65 90.2 168.02 86.95 162.38 83.69 156.75 80.44 156.75 132.49 162.38 135.74 168.02 138.99 173.65 142.24 173.65 109.72 179.29 112.97 184.93 116.22 190.55 125.97 190.55 125.98 190.57 125.99 196.19 135.73 196.19 135.74 196.21 135.74 201.83 145.51 207.46 155.26 213.1 165.02 218.74 168.27 224.36 171.52 230 174.78 230 161.77 224.36 152.01 224.36 151.99 218.74 142.25 213.1 132.48 218.74 135.74 224.36 138.99 230 142.24 230 90.2 224.36 86.95 218.74 83.7"/><path class="cls-3" d="M244.37,78.07,250,74.82l5.63-3.25,5.64-3.25,5.64-3.27,5.62-3.25,5.64-3.25,5.64-3.25L289.44,52l5.64-3.25,5.62-3.25,5.64-3.25L300.7,39l-5.62-3.26h0l-11.25-6.5L278.17,26l-5.64-3.27-5.62-3.25-5.64-3.25L255.63,13,250,9.76,244.37,6.5l-5.64-3.25L233.1,0l-5.64,3.25L221.84,6.5h0L216.2,9.76,210.56,13l-5.64,3.25-5.63,3.25-5.62,3.25h0L188,26l-5.63,3.25-5.64,3.25-5.63,3.25L165.49,39l-5.64,3.25,11.27,6.5L176.75,52l5.64,3.26L188,58.55l5.63,3.25,5.64,3.25,5.63,3.27,5.64,3.25,5.64,3.25,5.62,3.25,5.64,3.26,5.64,3.25,5.63-3.25Zm-22.53-13L216.2,61.8l-5.64-3.25-5.63-3.26L199.29,52l-5.62-3.25v-6.5h0V35.78l5.63-3.25,5.65-3.25L210.56,26l5.62-3.25,5.64-3.25h22.55L250,22.76,255.63,26h0l5.63,3.25,11.28,6.5,0,6.51v6.5L266.9,52l-5.63,3.25h0l-5.63,3.25L250,61.8l-5.64,3.25Z"/><polygon class="cls-4" points="243.47 36.49 243.47 39.73 243.46 39.74 243.47 39.76 243.47 46.26 249.11 49.51 254.74 46.26 254.74 33.24 249.11 30 226.57 30 220.94 33.24 226.57 36.49 243.47 36.49"/><polygon class="cls-5" points="239.64 48.48 222.73 48.48 222.73 45.23 222.74 38.71 217.1 35.46 211.46 38.72 211.46 51.73 217.09 54.98 228.35 54.98 228.37 54.99 239.63 54.99 245.28 51.73 239.64 48.48"/><path class="cls-6" d="M365.16,224.46,347.6,211.63a10.62,10.62,0,0,0-2.52-1.38h0c0,6.64,3.65,13,10.16,17.78l2.52,1.85a.33.33,0,0,1,.14.26.35.35,0,0,1-.14.26l-2.51,1.84c-6.52,4.76-10.17,11.14-10.17,17.79a11.32,11.32,0,0,0,2.52-1.36l17.56-12.85C369.46,232.69,369.46,227.6,365.16,224.46Z"/><path class="cls-6" d="M314.51,224.46c-4.27,3.14-4.27,8.23,0,11.37l17.57,12.85a11.46,11.46,0,0,0,2.53,1.38c0-6.65-3.65-13-10.17-17.8l-2.52-1.85a.32.32,0,0,1-.14-.26.3.3,0,0,1,.14-.26l2.54-1.86c6.51-4.76,10.15-11.14,10.15-17.79h0a11.52,11.52,0,0,0-2.53,1.4Z"/><path class="cls-6" d="M31.39,233.45c.24.29.65.85,1.25,1.67s1.29,1.77,2.09,2.84l2.48,3.38c.85,1.18,1.65,2.29,2.38,3.33s1.33,1.94,1.79,2.66a4,4,0,0,1,.69,1.38,1.42,1.42,0,0,1-.3.91,1.28,1.28,0,0,1-1.07.39H34.13a2.42,2.42,0,0,1-1.13-.22,2.11,2.11,0,0,1-.78-.75L21.42,233.6H8.83v14.72a1.88,1.88,0,0,1-.39,1.18,1.5,1.5,0,0,1-1.28.51H1.73a1.59,1.59,0,0,1-1.31-.51A1.8,1.8,0,0,1,0,248.32V228.09a1.76,1.76,0,0,1,.39-1.15,1.6,1.6,0,0,1,1.34-.49h26a5.47,5.47,0,0,0,2.18-.36,2.82,2.82,0,0,0,1.22-1,3.8,3.8,0,0,0,.57-1.45,9.52,9.52,0,0,0,.15-1.73,9.64,9.64,0,0,0-.15-1.74,3.8,3.8,0,0,0-.57-1.45,2.82,2.82,0,0,0-1.22-1,5.47,5.47,0,0,0-2.18-.36h-26a1.63,1.63,0,0,1-1.34-.48A1.81,1.81,0,0,1,0,215.74v-3.82a1.88,1.88,0,0,1,.39-1.18,1.58,1.58,0,0,1,1.34-.51H29.24a14.75,14.75,0,0,1,5.61.92,8.66,8.66,0,0,1,3.49,2.51,9.66,9.66,0,0,1,1.82,3.72,18.34,18.34,0,0,1,.54,4.54,20.34,20.34,0,0,1-.39,4,9.79,9.79,0,0,1-1.43,3.52A8.87,8.87,0,0,1,36,232.08,11.06,11.06,0,0,1,31.39,233.45Z"/><path class="cls-6" d="M90,210.23a1.57,1.57,0,0,1,1.28.49,1.79,1.79,0,0,1,.39,1.16v23a32.08,32.08,0,0,1-.54,6.11A10.94,10.94,0,0,1,89,245.78a10.17,10.17,0,0,1-4.47,3.12A21.67,21.67,0,0,1,76.92,250H63.49a21.67,21.67,0,0,1-7.61-1.11,10.11,10.11,0,0,1-4.47-3.12A10.83,10.83,0,0,1,49.29,241a32.08,32.08,0,0,1-.54-6.11v-23a1.79,1.79,0,0,1,.39-1.16,1.64,1.64,0,0,1,1.34-.49h5.43a1.57,1.57,0,0,1,1.29.49,1.84,1.84,0,0,1,.38,1.16v23.79c0,1,0,1.93.12,2.8a5.24,5.24,0,0,0,.72,2.29,3.93,3.93,0,0,0,1.85,1.55,8.93,8.93,0,0,0,3.52.55H76.68a9,9,0,0,0,3.52-.55A3.86,3.86,0,0,0,82,240.79a5.41,5.41,0,0,0,.69-2.29c.07-.89.11-1.83.11-2.83V211.88a1.79,1.79,0,0,1,.39-1.16,1.57,1.57,0,0,1,1.29-.49Z"/><path class="cls-6" d="M141.42,219.84v2.61a12,12,0,0,1-.27,2.55,9.1,9.1,0,0,1-.86,2.39,7,7,0,0,1-1.85,2.15,7.11,7.11,0,0,1,2.59,3.28,11.3,11.3,0,0,1,.69,3.91c0,1.49,0,3-.09,4.57a11.56,11.56,0,0,1-.95,4.27,7.28,7.28,0,0,1-2.84,3.18,10.54,10.54,0,0,1-5.67,1.26H105.32a6.28,6.28,0,0,1-1.76-.27,6,6,0,0,1-1.67-.74,5.09,5.09,0,0,1-1.25-1.14,2.25,2.25,0,0,1-.51-1.42V213.52a2.72,2.72,0,0,1,1.4-2.39,6,6,0,0,1,3.31-.9h26.44a14.61,14.61,0,0,1,4.86.7,7.68,7.68,0,0,1,3.1,2,7.21,7.21,0,0,1,1.67,3A14.07,14.07,0,0,1,141.42,219.84Zm-32.46,23h20.77a3.49,3.49,0,0,0,2.59-.7,3.28,3.28,0,0,0,.63-2.24v-3.28a2.87,2.87,0,0,0-.9-2.42,5,5,0,0,0-3-.67H117.49a2.15,2.15,0,0,1-1.4-.46,1.4,1.4,0,0,1-.57-1.13v-4a1.42,1.42,0,0,1,.57-1.14,2.2,2.2,0,0,1,1.4-.46h11.58a5.79,5.79,0,0,0,2.89-.55,2.4,2.4,0,0,0,.93-2.24v-3.34a2.55,2.55,0,0,0-3.16-2.89H109Z"/><path class="cls-6" d="M181.64,233.45c.24.29.66.85,1.25,1.67L185,238c.8,1.08,1.62,2.21,2.48,3.38l2.39,3.33c.73,1.05,1.33,1.94,1.79,2.66a4.1,4.1,0,0,1,.68,1.38,1.42,1.42,0,0,1-.3.91A1.27,1.27,0,0,1,191,250h-6.56a2.43,2.43,0,0,1-1.14-.22,2,2,0,0,1-.77-.75l-10.8-15.44h-12.6v14.72a1.87,1.87,0,0,1-.38,1.18,1.52,1.52,0,0,1-1.29.51H152a1.6,1.6,0,0,1-1.31-.51,1.8,1.8,0,0,1-.42-1.18V228.09a1.76,1.76,0,0,1,.39-1.15,1.61,1.61,0,0,1,1.34-.49h26a5.43,5.43,0,0,0,2.18-.36,2.76,2.76,0,0,0,1.22-1,3.8,3.8,0,0,0,.57-1.45,9.52,9.52,0,0,0,.15-1.73,9.64,9.64,0,0,0-.15-1.74,3.8,3.8,0,0,0-.57-1.45,2.76,2.76,0,0,0-1.22-1,5.43,5.43,0,0,0-2.18-.36H152a1.64,1.64,0,0,1-1.34-.48,1.81,1.81,0,0,1-.39-1.16v-3.82a1.88,1.88,0,0,1,.39-1.18,1.59,1.59,0,0,1,1.34-.51h27.51a14.75,14.75,0,0,1,5.61.92,8.59,8.59,0,0,1,3.49,2.51,9.52,9.52,0,0,1,1.82,3.72,18.34,18.34,0,0,1,.54,4.54,20.34,20.34,0,0,1-.39,4,9.61,9.61,0,0,1-1.43,3.52,8.94,8.94,0,0,1-2.83,2.66A11.16,11.16,0,0,1,181.64,233.45Z"/><path class="cls-6" d="M206.76,210.23a2.87,2.87,0,0,1,1,.29c.43.2.65.66.65,1.4v36.45c0,.74-.22,1.2-.65,1.4a2.87,2.87,0,0,1-1,.29h-5.49a2.83,2.83,0,0,1-1-.29c-.44-.2-.66-.66-.66-1.4V211.92c0-.74.22-1.2.66-1.4a2.83,2.83,0,0,1,1-.29Z"/><path class="cls-6" d="M259.21,247.88a1.44,1.44,0,0,1,.42.87c0,.84-.46,1.26-1.37,1.26h-6.92a2.53,2.53,0,0,1-1.29-.22,4.11,4.11,0,0,1-.8-.79l-12.06-13.81L225.08,249a3.59,3.59,0,0,1-.86.75A2.57,2.57,0,0,1,223,250h-6.56c-.88,0-1.31-.39-1.31-1.16a1.49,1.49,0,0,1,.41-1l16.41-18.77-14.8-16.75a1.52,1.52,0,0,1-.35-1c0-.77.43-1.16,1.31-1.16H225a2.86,2.86,0,0,1,1.22.22,2.69,2.69,0,0,1,.87.75l10.56,12.36,11.22-12.36a3.89,3.89,0,0,1,.87-.75,2.62,2.62,0,0,1,1.22-.22h6.56c.92,0,1.37.39,1.37,1.16a1.26,1.26,0,0,1-.41,1l-15.28,17Z"/><path class="cls-6" d="M302.18,210.23a1.51,1.51,0,0,1,1.28.51,1.88,1.88,0,0,1,.39,1.18c0,.29,0,.74.09,1.36a11,11,0,0,1,0,1.81,3.77,3.77,0,0,1-.45,1.59,1.42,1.42,0,0,1-1.34.7H280.75a9.4,9.4,0,0,0-3.52.53,3.84,3.84,0,0,0-1.85,1.5,5.19,5.19,0,0,0-.71,2.24q-.12,1.28-.12,2.82v11.25q0,1.5.12,2.82a5.07,5.07,0,0,0,.71,2.27,4.08,4.08,0,0,0,1.85,1.5,9,9,0,0,0,3.52.55h21.43a1.51,1.51,0,0,1,1.28.51,1.88,1.88,0,0,1,.39,1.18c0,.33,0,.79.09,1.4a11.33,11.33,0,0,1,0,1.84,3.48,3.48,0,0,1-.45,1.57,1.44,1.44,0,0,1-1.34.65H280.46A21.21,21.21,0,0,1,273,248.9a10.54,10.54,0,0,1-4.51-3.09,10.9,10.9,0,0,1-2.18-4.78,31.89,31.89,0,0,1-.56-6.18v-9.51a32.71,32.71,0,0,1,.53-6.06,10.75,10.75,0,0,1,2.15-4.77,10.54,10.54,0,0,1,4.51-3.14,20.9,20.9,0,0,1,7.55-1.14Z"/><path class="cls-6" d="M402.08,210.23a21.79,21.79,0,0,1,8,1.24,11.74,11.74,0,0,1,4.92,3.4,12.27,12.27,0,0,1,2.48,5.11,28,28,0,0,1,.68,6.38v7.53a28.23,28.23,0,0,1-.68,6.42A12.07,12.07,0,0,1,415,245.4a11.89,11.89,0,0,1-4.92,3.38,22,22,0,0,1-8,1.23H381.74a6.35,6.35,0,0,1-1.77-.27,6.15,6.15,0,0,1-1.67-.74,5.48,5.48,0,0,1-1.25-1.14,2.25,2.25,0,0,1-.51-1.42V213.52a2.71,2.71,0,0,1,1.41-2.39,6,6,0,0,1,3.31-.9Zm-.18,32.63a10.45,10.45,0,0,0,4-.62,4.82,4.82,0,0,0,2.21-1.77,6.23,6.23,0,0,0,.95-2.63,23.17,23.17,0,0,0,.21-3.23v-9a23.27,23.27,0,0,0-.21-3.23,6.09,6.09,0,0,0-.95-2.61,5,5,0,0,0-2.21-1.76,10.19,10.19,0,0,0-4-.65H385.38v25.48Z"/><path class="cls-6" d="M461.93,210.23a2.87,2.87,0,0,1,1,.29c.44.2.65.66.65,1.4v3.77c0,.74-.21,1.21-.65,1.4a2.87,2.87,0,0,1-1,.29H427.62a2.69,2.69,0,0,1-1-.27c-.42-.17-.63-.63-.63-1.37V212c0-.77.21-1.25.63-1.45a2.61,2.61,0,0,1,1-.29Zm-27,28.24a3.7,3.7,0,0,0,1.58,3.43,8.35,8.35,0,0,0,4.33,1h21a1.65,1.65,0,0,1,1.35.49,1.84,1.84,0,0,1,.38,1.16v3.86a1.86,1.86,0,0,1-.38,1.16,1.65,1.65,0,0,1-1.35.48H440.69a21.91,21.91,0,0,1-7.13-1,10.82,10.82,0,0,1-4.51-2.82,10.43,10.43,0,0,1-2.35-4.42A22.37,22.37,0,0,1,426,236v-6.37a3.15,3.15,0,0,1,.24-1.18,2.59,2.59,0,0,1,.81-1.07,4.41,4.41,0,0,1,1.49-.74,7.51,7.51,0,0,1,2.29-.29h30.8a1.56,1.56,0,0,1,1.28.48,1.79,1.79,0,0,1,.39,1.16v3.81a1.86,1.86,0,0,1-.39,1.18,1.51,1.51,0,0,1-1.28.51H435Z"/></g></g></svg>