<svg xmlns="http://www.w3.org/2000/svg" xmlns:xlink="http://www.w3.org/1999/xlink" viewBox="0 0 461.09 82.04"><defs><style>.cls-1{fill:url(#linear-gradient);}.cls-2{fill:url(#linear-gradient-2);}.cls-3{fill:url(#linear-gradient-3);}.cls-4{fill:url(#linear-gradient-4);}.cls-5{fill:url(#linear-gradient-5);}.cls-6{fill:#41d2f2;}</style><linearGradient id="linear-gradient" x1="98.01" y1="7.59" x2="-13.25" y2="69.09" gradientUnits="userSpaceOnUse"><stop offset="0.21" stop-color="#41d2f2"/><stop offset="0.52" stop-color="#0367a6"/><stop offset="0.7" stop-color="#024873"/><stop offset="0.89" stop-color="#012840"/></linearGradient><linearGradient id="linear-gradient-2" x1="-31.04" y1="60.65" x2="108.05" y2="47.01" gradientUnits="userSpaceOnUse"><stop offset="0" stop-color="#012840"/><stop offset="0.11" stop-color="#024873"/><stop offset="0.33" stop-color="#0367a6"/><stop offset="0.72" stop-color="#41d2f2"/><stop offset="0.99" stop-color="#41d2f2"/><stop offset="1" stop-color="#41d2f2"/></linearGradient><linearGradient id="linear-gradient-3" x1="-18.25" y1="45.85" x2="69.84" y2="3.51" xlink:href="#linear-gradient-2"/><linearGradient id="linear-gradient-4" x1="22.41" y1="23.17" x2="44.07" y2="16.93" xlink:href="#linear-gradient-2"/><linearGradient id="linear-gradient-5" x1="18.07" y1="25.71" x2="39.75" y2="19.46" xlink:href="#linear-gradient-2"/></defs><g id="Layer_2" data-name="Layer 2"><g id="Layer_1-2" data-name="Layer 1"><polygon class="cls-1" points="29.1 39.29 29.1 39.28 26.45 37.76 23.8 36.23 21.16 34.7 18.52 33.18 18.52 33.17 15.87 31.65 13.23 30.12 10.58 28.6 7.93 27.07 5.29 25.55 2.65 24.02 0 22.49 0 31.65 2.65 33.17 5.29 34.7 7.93 36.23 10.58 37.76 13.23 39.28 15.87 40.81 18.52 42.34 21.16 43.86 23.8 45.39 26.45 46.91 26.45 53.02 23.8 51.5 21.16 49.97 18.52 48.45 15.87 46.91 13.23 45.39 10.58 43.86 7.93 42.34 5.29 40.81 2.65 39.28 0 37.76 0 62.19 2.65 63.71 5.29 65.24 7.93 66.77 7.93 51.5 10.58 53.02 13.23 54.55 15.87 59.13 15.87 59.13 15.87 59.14 18.52 63.71 18.52 63.71 18.52 63.71 21.16 68.3 23.8 72.87 26.45 77.46 29.1 78.98 31.74 80.51 34.38 82.04 34.38 75.93 31.74 71.35 31.74 71.34 29.1 66.77 26.45 62.18 29.1 63.71 31.74 65.24 34.38 66.77 34.38 42.34 31.74 40.81 29.1 39.29"/><polygon class="cls-2" points="50.52 43.86 53.16 42.34 55.8 40.81 58.45 39.28 61.09 37.76 63.74 36.23 66.38 34.7 69.03 33.17 71.67 31.65 71.67 22.49 69.03 24.02 66.38 25.54 63.74 27.07 61.09 28.6 58.45 30.12 55.8 31.65 53.16 33.17 53.16 33.18 50.52 34.7 47.87 36.23 45.22 37.76 42.58 39.28 39.94 40.81 37.29 42.34 37.29 82.04 39.94 80.51 42.58 78.98 45.22 77.46 47.87 75.93 50.52 74.4 53.16 72.87 55.8 71.35 58.45 69.82 61.09 68.3 63.74 66.77 66.38 65.24 69.03 63.71 71.67 62.19 71.67 53.02 69.03 54.55 66.38 56.08 63.74 57.61 61.09 59.13 58.45 60.66 55.8 62.18 53.16 63.71 50.52 65.24 45.22 68.29 45.22 46.91 50.52 43.86"/><path class="cls-3" d="M41.13,36.64l2.64-1.52,2.64-1.53,2.65-1.52,2.65-1.54L54.35,29,57,27.48,59.64,26l2.64-1.53,2.65-1.53,2.64-1.52,2.65-1.53-2.65-1.53-2.64-1.53h0l-5.28-3L57,12.22l-2.64-1.54L51.71,9.16,49.06,7.63,46.41,6.11,43.77,4.58,41.13,3.05,38.48,1.53,35.84,0,33.19,1.53,30.55,3.05h0L27.9,4.58,25.26,6.11,22.61,7.63,20,9.16l-2.64,1.52h0l-2.64,1.54L12,13.74,9.39,15.27,6.75,16.79,4.1,18.32,1.46,19.85l5.29,3,2.64,1.53L12,26l2.64,1.52L17.32,29,20,30.53l2.64,1.54,2.65,1.52,2.64,1.53,2.65,1.52,2.64,1.53,2.65,1.53,2.64-1.53ZM30.55,30.53,27.9,29l-2.64-1.53L22.62,26,20,24.43,17.33,22.9v-3h0V16.79L20,15.27l2.66-1.53,2.64-1.53,2.64-1.53,2.65-1.52H41.13l2.64,1.52,2.64,1.54h0l2.64,1.52,5.29,3V22.9L51.7,24.43,49.06,26h0l-2.64,1.53L43.77,29l-2.65,1.52Z"/><polygon class="cls-4" points="40.71 17.13 40.71 18.65 40.7 18.66 40.71 18.66 40.71 21.71 43.35 23.24 45.99 21.71 45.99 15.6 43.35 14.08 32.77 14.08 30.13 15.6 32.77 17.13 40.71 17.13"/><polygon class="cls-5" points="38.91 22.75 30.97 22.75 30.97 21.23 30.98 18.17 28.33 16.64 25.68 18.18 25.68 24.28 28.32 25.8 33.61 25.8 33.62 25.81 38.9 25.81 41.56 24.28 38.91 22.75"/><path class="cls-6" d="M382.32,36.47,368.27,26.2a8.91,8.91,0,0,0-2-1.1h0c0,5.32,2.91,10.43,8.12,14.24l2,1.47a.26.26,0,0,1,0,.42l-2,1.47c-5.21,3.81-8.13,8.92-8.13,14.24a9.29,9.29,0,0,0,2-1.09l14.05-10.28C385.76,43.05,385.76,39,382.32,36.47Z"/><path class="cls-6" d="M341.79,36.47c-3.42,2.52-3.42,6.58,0,9.1l14.06,10.28a8.77,8.77,0,0,0,2,1.1c0-5.32-2.92-10.43-8.13-14.24l-2-1.48a.26.26,0,0,1,0-.42l2-1.48c5.21-3.81,8.12-8.92,8.12-14.24h0a9.2,9.2,0,0,0-2,1.11Z"/><path class="cls-6" d="M115.24,43.67c.19.23.52.67,1,1.33l1.67,2.28q1,1.29,2,2.7c.69.94,1.32,1.83,1.91,2.66s1.07,1.55,1.44,2.13a3.49,3.49,0,0,1,.55,1.1,1.14,1.14,0,0,1-.24.73,1,1,0,0,1-.86.31h-5.26a2,2,0,0,1-.9-.17,1.76,1.76,0,0,1-.62-.6l-8.65-12.36H97.19V55.56a1.51,1.51,0,0,1-.31.95,1.22,1.22,0,0,1-1,.4H91.51a1.27,1.27,0,0,1-1.05-.4,1.42,1.42,0,0,1-.34-.95V39.38a1.49,1.49,0,0,1,.31-.93,1.32,1.32,0,0,1,1.08-.39h20.77a4.2,4.2,0,0,0,1.74-.29,2.17,2.17,0,0,0,1-.79,3.06,3.06,0,0,0,.45-1.16,7.66,7.66,0,0,0,.12-1.39,7.74,7.74,0,0,0-.12-1.39,3.19,3.19,0,0,0-.45-1.16,2.31,2.31,0,0,0-1-.79,4.37,4.37,0,0,0-1.74-.29H91.51a1.35,1.35,0,0,1-1.08-.38,1.49,1.49,0,0,1-.31-.93v-3a1.57,1.57,0,0,1,.31-1,1.29,1.29,0,0,1,1.08-.4h22a11.81,11.81,0,0,1,4.49.73,6.84,6.84,0,0,1,2.79,2,7.65,7.65,0,0,1,1.46,3,15.17,15.17,0,0,1,.43,3.63,16.91,16.91,0,0,1-.31,3.19,7.81,7.81,0,0,1-1.15,2.82A7,7,0,0,1,119,42.56,8.88,8.88,0,0,1,115.24,43.67Z"/><path class="cls-6" d="M162.13,25.09a1.24,1.24,0,0,1,1,.38,1.43,1.43,0,0,1,.31.93V44.82a26.37,26.37,0,0,1-.42,4.89,8.77,8.77,0,0,1-1.7,3.82A8.11,8.11,0,0,1,157.76,56a17.15,17.15,0,0,1-6.09.89H140.93a17.11,17.11,0,0,1-6.09-.89,8.11,8.11,0,0,1-3.58-2.49,8.66,8.66,0,0,1-1.7-3.82,26.33,26.33,0,0,1-.43-4.89V26.4a1.49,1.49,0,0,1,.31-.93,1.35,1.35,0,0,1,1.08-.38h4.34a1.27,1.27,0,0,1,1,.38,1.43,1.43,0,0,1,.31.93v19a22.38,22.38,0,0,0,.1,2.24,4.19,4.19,0,0,0,.57,1.84,3.15,3.15,0,0,0,1.48,1.23,7.09,7.09,0,0,0,2.82.45h10.31a7.09,7.09,0,0,0,2.82-.45,3,3,0,0,0,1.45-1.21,4.23,4.23,0,0,0,.55-1.84c.07-.71.1-1.46.1-2.26v-19a1.43,1.43,0,0,1,.31-.93,1.26,1.26,0,0,1,1-.38Z"/><path class="cls-6" d="M203.29,32.77v2.09a9.4,9.4,0,0,1-.22,2,7.28,7.28,0,0,1-.69,1.91,5.67,5.67,0,0,1-1.48,1.72A5.68,5.68,0,0,1,203,43.16a9.25,9.25,0,0,1,.55,3.13c0,1.19,0,2.4-.08,3.65a9,9,0,0,1-.76,3.42,5.84,5.84,0,0,1-2.27,2.55,8.45,8.45,0,0,1-4.53,1H174.4A5.13,5.13,0,0,1,173,56.7a4.94,4.94,0,0,1-1.34-.6,4,4,0,0,1-1-.91,1.79,1.79,0,0,1-.41-1.14V27.71a2.18,2.18,0,0,1,1.13-1.91,4.77,4.77,0,0,1,2.65-.71h21.15a11.39,11.39,0,0,1,3.89.56,6.13,6.13,0,0,1,2.48,1.56,5.88,5.88,0,0,1,1.34,2.41A11.44,11.44,0,0,1,203.29,32.77Zm-26,18.43h16.62a2.8,2.8,0,0,0,2.07-.56,2.65,2.65,0,0,0,.51-1.8V46.21a2.28,2.28,0,0,0-.72-1.93,4.05,4.05,0,0,0-2.39-.54h-9.26a1.73,1.73,0,0,1-1.12-.36,1.12,1.12,0,0,1-.46-.91V39.3a1.12,1.12,0,0,1,.46-.91,1.73,1.73,0,0,1,1.12-.36h9.26a4.63,4.63,0,0,0,2.32-.45,1.92,1.92,0,0,0,.74-1.79V33.12a2.63,2.63,0,0,0-.5-1.72,2.61,2.61,0,0,0-2-.6H177.31Z"/><path class="cls-6" d="M235.47,43.67c.19.23.52.67,1,1.33l1.67,2.28,2,2.7L242,52.64c.58.84,1.06,1.55,1.43,2.13a3.49,3.49,0,0,1,.55,1.1,1.14,1.14,0,0,1-.24.73,1,1,0,0,1-.86.31h-5.25a2,2,0,0,1-.91-.17,1.84,1.84,0,0,1-.62-.6L227.5,43.78H217.42V55.56a1.51,1.51,0,0,1-.31.95,1.22,1.22,0,0,1-1,.4h-4.34a1.27,1.27,0,0,1-1.05-.4,1.42,1.42,0,0,1-.34-.95V39.38a1.49,1.49,0,0,1,.31-.93,1.32,1.32,0,0,1,1.08-.39h20.77a4.2,4.2,0,0,0,1.74-.29,2.17,2.17,0,0,0,1-.79,3.06,3.06,0,0,0,.45-1.16,7.66,7.66,0,0,0,.12-1.39,7.74,7.74,0,0,0-.12-1.39,3.19,3.19,0,0,0-.45-1.16,2.31,2.31,0,0,0-1-.79,4.37,4.37,0,0,0-1.74-.29H211.74a1.35,1.35,0,0,1-1.08-.38,1.49,1.49,0,0,1-.31-.93v-3a1.57,1.57,0,0,1,.31-1,1.29,1.29,0,0,1,1.08-.4h22a11.78,11.78,0,0,1,4.49.73,6.84,6.84,0,0,1,2.79,2,7.65,7.65,0,0,1,1.46,3,14.68,14.68,0,0,1,.43,3.63,16.91,16.91,0,0,1-.31,3.19,7.81,7.81,0,0,1-1.15,2.82,7,7,0,0,1-2.27,2.12A8.88,8.88,0,0,1,235.47,43.67Z"/><path class="cls-6" d="M255.57,25.09a2.1,2.1,0,0,1,.81.23c.35.15.53.53.53,1.12V55.6c0,.59-.18,1-.53,1.12a2.3,2.3,0,0,1-.81.23h-4.39a2.3,2.3,0,0,1-.81-.23c-.35-.15-.53-.53-.53-1.12V26.44c0-.59.18-1,.53-1.12a2.1,2.1,0,0,1,.81-.23Z"/><path class="cls-6" d="M297.54,55.21a1.16,1.16,0,0,1,.34.7c0,.67-.37,1-1.1,1h-5.54a2.16,2.16,0,0,1-1-.17,3.44,3.44,0,0,1-.64-.64l-9.65-11-9.69,11.08a3.39,3.39,0,0,1-.69.6,2.21,2.21,0,0,1-1,.17h-5.25c-.7,0-1.05-.31-1.05-.92a1.21,1.21,0,0,1,.33-.78l13.13-15-11.84-13.4a1.22,1.22,0,0,1-.29-.78c0-.61.35-.92,1.05-.92h5.54a2.21,2.21,0,0,1,1,.17,2.1,2.1,0,0,1,.69.6l8.46,9.89,9-9.89a3.39,3.39,0,0,1,.69-.6,2.07,2.07,0,0,1,1-.17h5.26c.73,0,1.09.31,1.09.92a1,1,0,0,1-.33.78L284.75,40.42Z"/><path class="cls-6" d="M331.92,25.09a1.22,1.22,0,0,1,1,.4,1.57,1.57,0,0,1,.31,1c0,.23,0,.59.07,1.08a7.82,7.82,0,0,1,0,1.45,3.07,3.07,0,0,1-.35,1.27,1.12,1.12,0,0,1-1.08.56H314.78a7.32,7.32,0,0,0-2.82.43,3.08,3.08,0,0,0-1.48,1.19,4.06,4.06,0,0,0-.57,1.8,22.38,22.38,0,0,0-.1,2.26v9c0,.8,0,1.55.1,2.26a3.91,3.91,0,0,0,.57,1.81,3.16,3.16,0,0,0,1.48,1.2,7.09,7.09,0,0,0,2.82.45h17.14a1.22,1.22,0,0,1,1,.4,1.57,1.57,0,0,1,.31.95c0,.26,0,.63.07,1.12a8,8,0,0,1,0,1.47,2.82,2.82,0,0,1-.35,1.25,1.15,1.15,0,0,1-1.08.52H314.54a16.78,16.78,0,0,1-6-.89,8.33,8.33,0,0,1-3.61-2.47,8.61,8.61,0,0,1-1.74-3.82,25.14,25.14,0,0,1-.45-4.95v-7.6a25.29,25.29,0,0,1,.43-4.85A8.05,8.05,0,0,1,308.5,26a16.94,16.94,0,0,1,6-.9Z"/><path class="cls-6" d="M411.87,25.09a17.55,17.55,0,0,1,6.37,1,9.6,9.6,0,0,1,3.94,2.72,10,10,0,0,1,2,4.1,22.21,22.21,0,0,1,.55,5.1v6a22.38,22.38,0,0,1-.55,5.14,9.75,9.75,0,0,1-2,4.07,9.59,9.59,0,0,1-3.94,2.71,17.77,17.77,0,0,1-6.37,1H395.58a5.24,5.24,0,0,1-1.41-.21,4.87,4.87,0,0,1-1.33-.6,3.82,3.82,0,0,1-1-.91,1.74,1.74,0,0,1-.41-1.14V27.71a2.17,2.17,0,0,1,1.12-1.91,4.8,4.8,0,0,1,2.65-.71Zm-.15,26.11a8.29,8.29,0,0,0,3.23-.51,3.8,3.8,0,0,0,1.76-1.41,5.08,5.08,0,0,0,.77-2.1,19.05,19.05,0,0,0,.16-2.59V37.41a19.05,19.05,0,0,0-.16-2.59,5,5,0,0,0-.77-2.09A4.06,4.06,0,0,0,415,31.32a8.27,8.27,0,0,0-3.23-.52H398.5V51.2Z"/><path class="cls-6" d="M459.76,25.09a2.1,2.1,0,0,1,.81.23c.35.15.52.53.52,1.12v3c0,.59-.17,1-.52,1.12a2.1,2.1,0,0,1-.81.23H432.3a2.26,2.26,0,0,1-.79-.21c-.33-.14-.5-.51-.5-1.1v-3c0-.62.17-1,.5-1.16a2,2,0,0,1,.79-.23ZM438.17,47.68a2.94,2.94,0,0,0,1.27,2.74,6.57,6.57,0,0,0,3.46.78h16.81a1.31,1.31,0,0,1,1.07.38,1.43,1.43,0,0,1,.31.93V55.6a1.43,1.43,0,0,1-.31.93,1.31,1.31,0,0,1-1.07.38H442.76a17.5,17.5,0,0,1-5.71-.79,8.59,8.59,0,0,1-3.6-2.26,8.38,8.38,0,0,1-1.89-3.53,18.29,18.29,0,0,1-.55-4.62v-5.1a2.67,2.67,0,0,1,.19-.94,2.11,2.11,0,0,1,.65-.85,3.4,3.4,0,0,1,1.19-.6,6.11,6.11,0,0,1,1.84-.23h24.64a1.27,1.27,0,0,1,1,.38,1.49,1.49,0,0,1,.31.93v3.05a1.57,1.57,0,0,1-.31.95,1.22,1.22,0,0,1-1,.4H438.17Z"/></g></g></svg>