<svg xmlns="http://www.w3.org/2000/svg" viewBox="0 0 162.62 186.14"><defs><style>.cls-1{fill:#231f20;}</style></defs><g id="Layer_2" data-name="Layer 2"><g id="Layer_1-2" data-name="Layer 1"><polygon class="cls-1" points="66.02 89.14 66.02 89.13 60.01 85.67 54.01 82.2 48.01 78.74 42.01 75.28 42.01 75.27 36 71.81 30.01 68.35 24.01 64.88 18 61.42 12.01 57.96 6 54.49 0 51.03 0 71.81 6 75.27 12.01 78.74 18 82.2 24.01 85.67 30.01 89.13 36 92.59 42.01 96.06 48.01 99.52 54.01 102.99 60.01 106.45 60.01 120.31 54.01 116.84 48.01 113.38 42.01 109.92 36 106.45 30.01 102.99 24.01 99.52 18 96.06 12.01 92.6 6 89.13 0 85.67 0 141.1 6 144.56 12.01 148.02 18 151.48 18 116.84 24.01 120.31 30.01 123.77 36 134.15 36 134.16 36.02 134.18 42.01 144.55 42.01 144.56 42.02 144.56 48.01 154.96 54.01 165.34 60.01 175.74 66.02 179.2 72.01 182.66 78.01 186.14 78.01 172.28 72.01 161.88 72.01 161.87 66.02 151.5 60.01 141.09 66.02 144.56 72.01 148.02 78.01 151.48 78.01 96.06 72.01 92.6 66.02 89.14"/><polygon class="cls-1" points="114.61 99.52 120.61 96.06 126.61 92.59 132.62 89.13 138.61 85.67 144.61 82.2 150.62 78.73 156.61 75.27 162.62 71.81 162.62 51.03 156.61 54.49 150.62 57.95 144.61 61.42 138.61 64.88 132.62 68.35 126.61 71.81 120.61 75.27 120.61 75.28 114.61 78.74 108.61 82.2 102.61 85.67 96.61 89.13 90.61 92.6 84.6 96.06 84.6 186.14 90.61 182.66 96.61 179.2 102.61 175.74 108.61 172.28 114.61 168.8 120.61 165.34 126.61 161.88 132.62 158.42 138.61 154.96 144.61 151.48 150.62 148.02 156.61 144.56 162.62 141.1 162.62 120.31 156.61 123.77 150.62 127.23 144.61 130.7 138.61 134.16 132.62 137.63 126.61 141.09 120.61 144.56 114.61 148.02 102.61 154.94 102.61 106.45 114.61 99.52"/><path class="cls-1" d="M93.31,83.14l6-3.46,6-3.46,6-3.47,6-3.47,6-3.46,6-3.46,6-3.46,6-3.48,6-3.46,6-3.46,6-3.46-6-3.46-6-3.48h0l-12-6.92-6-3.46-6-3.48-6-3.46-6-3.46-6-3.46-6-3.46-6-3.48-6-3.46L81.31,0l-6,3.46-6,3.46h0l-6,3.48-6,3.46-6,3.46-6,3.46-6,3.46h0l-6,3.48-6,3.46-6,3.46-6,3.46-6,3.48L3.3,45l12,6.92,6,3.46,6,3.48,6,3.46,6,3.46,6,3.46,6,3.47,6,3.47,6,3.46,6,3.46,6,3.47,6,3.46,6-3.46Zm-24-13.86-6-3.46-6-3.46-6-3.48-6-3.46-6-3.46V45h0V38.1l6-3.46,6-3.46,6-3.48,6-3.46,6-3.46h24l6,3.46,6,3.48h0l6,3.46,12,6.92V52l-6,3.46-6,3.46h0l-6,3.46-6,3.48-6,3.46Z"/><polygon class="cls-1" points="92.36 38.87 92.36 42.31 92.35 42.33 92.36 42.34 92.36 49.26 98.36 52.73 104.36 49.26 104.36 35.41 98.36 31.94 74.36 31.94 68.37 35.41 74.36 38.87 92.36 38.87"/><polygon class="cls-1" points="88.28 51.62 70.27 51.62 70.27 48.16 70.28 41.23 64.28 37.77 58.27 41.24 58.27 55.09 64.26 58.55 76.26 58.55 76.27 58.56 88.27 58.56 94.29 55.09 88.28 51.62"/></g></g></svg>