<svg xmlns="http://www.w3.org/2000/svg" viewBox="0 0 462.83 82.04"><defs><style>.cls-1{fill:#231f20;}</style></defs><g id="Layer_2" data-name="Layer 2"><g id="Layer_1-2" data-name="Layer 1"><polygon class="cls-1" points="29.1 39.29 29.1 39.28 26.45 37.76 23.8 36.23 21.16 34.7 18.52 33.18 18.52 33.17 15.87 31.65 13.23 30.12 10.58 28.6 7.93 27.07 5.29 25.55 2.65 24.02 0 22.49 0 31.65 2.65 33.17 5.29 34.7 7.93 36.23 10.58 37.76 13.23 39.28 15.87 40.81 18.52 42.34 21.16 43.86 23.8 45.39 26.45 46.91 26.45 53.02 23.8 51.5 21.16 49.97 18.52 48.45 15.87 46.91 13.23 45.39 10.58 43.86 7.93 42.34 5.29 40.81 2.65 39.28 0 37.76 0 62.19 2.65 63.71 5.29 65.24 7.93 66.77 7.93 51.5 10.58 53.02 13.23 54.55 15.87 59.13 15.87 59.13 15.87 59.14 18.52 63.71 18.52 63.71 18.52 63.71 21.16 68.3 23.8 72.87 26.45 77.46 29.1 78.98 31.74 80.51 34.38 82.04 34.38 75.93 31.74 71.35 31.74 71.34 29.1 66.77 26.45 62.18 29.1 63.71 31.74 65.24 34.38 66.77 34.38 42.34 31.74 40.81 29.1 39.29"/><polygon class="cls-1" points="50.52 43.86 53.16 42.34 55.8 40.81 58.45 39.28 61.09 37.76 63.74 36.23 66.38 34.7 69.03 33.17 71.67 31.65 71.67 22.49 69.03 24.02 66.38 25.54 63.74 27.07 61.09 28.6 58.45 30.12 55.8 31.65 53.16 33.17 53.16 33.18 50.52 34.7 47.87 36.23 45.22 37.76 42.58 39.28 39.94 40.81 37.29 42.34 37.29 82.04 39.94 80.51 42.58 78.98 45.22 77.46 47.87 75.93 50.52 74.4 53.16 72.87 55.8 71.35 58.45 69.82 61.09 68.3 63.74 66.77 66.38 65.24 69.03 63.71 71.67 62.19 71.67 53.02 69.03 54.55 66.38 56.08 63.74 57.61 61.09 59.13 58.45 60.66 55.8 62.18 53.16 63.71 50.52 65.24 45.22 68.29 45.22 46.91 50.52 43.86"/><path class="cls-1" d="M41.13,36.64l2.64-1.52,2.64-1.53,2.65-1.52,2.65-1.54L54.35,29,57,27.48,59.64,26l2.64-1.53,2.65-1.53,2.64-1.52,2.65-1.53-2.65-1.53-2.64-1.53h0l-5.28-3L57,12.22l-2.64-1.54L51.71,9.16,49.06,7.63,46.41,6.11,43.77,4.58,41.13,3.05,38.48,1.53,35.84,0,33.19,1.53,30.55,3.05h0L27.9,4.58,25.26,6.11,22.61,7.63,20,9.16l-2.64,1.52h0l-2.64,1.54L12,13.74,9.39,15.27,6.75,16.79,4.1,18.32,1.46,19.85l5.29,3,2.64,1.53L12,26l2.64,1.52L17.32,29,20,30.53l2.64,1.54,2.65,1.52,2.64,1.53,2.65,1.52,2.64,1.53,2.65,1.53,2.64-1.53ZM30.55,30.53,27.9,29l-2.64-1.53L22.62,26,20,24.43,17.33,22.9v-3h0V16.79L20,15.27l2.66-1.53,2.64-1.53,2.64-1.53,2.65-1.52H41.13l2.64,1.52,2.64,1.54h0l2.64,1.52,5.29,3V22.9L51.7,24.43,49.06,26h0l-2.64,1.53L43.77,29l-2.65,1.52Z"/><polygon class="cls-1" points="40.71 17.13 40.71 18.65 40.7 18.66 40.71 18.66 40.71 21.71 43.35 23.24 45.99 21.71 45.99 15.6 43.35 14.08 32.77 14.08 30.13 15.6 32.77 17.13 40.71 17.13"/><polygon class="cls-1" points="38.91 22.75 30.97 22.75 30.97 21.23 30.98 18.17 28.33 16.64 25.68 18.18 25.68 24.28 28.32 25.8 33.61 25.8 33.62 25.81 38.9 25.81 41.56 24.28 38.91 22.75"/><path class="cls-1" d="M384.12,36.48l-14-10.27a8.88,8.88,0,0,0-2-1.1h0c0,5.31,2.91,10.41,8.12,14.22l2,1.47a.24.24,0,0,1,0,.42l-2,1.47c-5.21,3.81-8.13,8.91-8.13,14.23a9.7,9.7,0,0,0,2-1.09l14-10.28C387.56,43.05,387.56,39,384.12,36.48Z"/><path class="cls-1" d="M343.63,36.48c-3.42,2.51-3.42,6.57,0,9.08l14,10.28a9.68,9.68,0,0,0,2,1.1c0-5.32-2.92-10.42-8.13-14.23l-2-1.48a.26.26,0,0,1,0-.42l2-1.48c5.2-3.81,8.12-8.91,8.12-14.22h0a9.71,9.71,0,0,0-2,1.11Z"/><path class="cls-1" d="M117.27,43.66c.19.23.53.68,1,1.33l1.67,2.28q1,1.29,2,2.7c.69.94,1.32,1.83,1.91,2.66s1.07,1.55,1.43,2.13a3.17,3.17,0,0,1,.55,1.1,1.14,1.14,0,0,1-.24.73,1,1,0,0,1-.86.31h-5.24a2.08,2.08,0,0,1-.91-.17,1.84,1.84,0,0,1-.62-.6L109.3,43.78H99.24V55.55a1.48,1.48,0,0,1-.31.94,1.22,1.22,0,0,1-1,.41H93.56a1.28,1.28,0,0,1-1-.41,1.44,1.44,0,0,1-.33-.94V39.38a1.43,1.43,0,0,1,.31-.93,1.31,1.31,0,0,1,1.07-.38h20.75a4.39,4.39,0,0,0,1.75-.29,2.27,2.27,0,0,0,1-.79,3,3,0,0,0,.46-1.16,8.11,8.11,0,0,0,0-2.78,3,3,0,0,0-.46-1.16,2.2,2.2,0,0,0-1-.79,4.39,4.39,0,0,0-1.75-.29H93.56a1.31,1.31,0,0,1-1.07-.38,1.43,1.43,0,0,1-.31-.93V26.45a1.48,1.48,0,0,1,.31-.94,1.23,1.23,0,0,1,1.07-.41h22a11.78,11.78,0,0,1,4.49.73,6.84,6.84,0,0,1,2.79,2,7.8,7.8,0,0,1,1.46,3,15.06,15.06,0,0,1,.42,3.63,16,16,0,0,1-.31,3.18,7.62,7.62,0,0,1-1.14,2.82A7,7,0,0,1,121,42.56,8.74,8.74,0,0,1,117.27,43.66Z"/><path class="cls-1" d="M164.12,25.1a1.24,1.24,0,0,1,1,.39,1.44,1.44,0,0,1,.31.92V44.82A26.22,26.22,0,0,1,165,49.7a8.66,8.66,0,0,1-1.7,3.82A8.08,8.08,0,0,1,159.76,56a17.42,17.42,0,0,1-6.09.89H142.94a17.32,17.32,0,0,1-6.08-.89,8.06,8.06,0,0,1-3.58-2.49,8.66,8.66,0,0,1-1.7-3.82,26.22,26.22,0,0,1-.43-4.88V26.41a1.39,1.39,0,0,1,.32-.92,1.28,1.28,0,0,1,1.07-.39h4.34a1.24,1.24,0,0,1,1,.39,1.44,1.44,0,0,1,.31.92v19c0,.8,0,1.54.09,2.24a4.33,4.33,0,0,0,.57,1.83,3.09,3.09,0,0,0,1.48,1.23,7.09,7.09,0,0,0,2.82.45h10.3a7.09,7.09,0,0,0,2.82-.45,3,3,0,0,0,1.45-1.21,4.37,4.37,0,0,0,.55-1.84c.06-.7.1-1.45.1-2.25v-19a1.38,1.38,0,0,1,.31-.92,1.21,1.21,0,0,1,1-.39Z"/><path class="cls-1" d="M205.24,32.78v2.08a10,10,0,0,1-.21,2,7.52,7.52,0,0,1-.69,1.91,5.67,5.67,0,0,1-1.48,1.72,5.59,5.59,0,0,1,2.07,2.62,9,9,0,0,1,.55,3.13c0,1.18,0,2.4-.07,3.64a9.21,9.21,0,0,1-.76,3.42,5.84,5.84,0,0,1-2.27,2.55,8.45,8.45,0,0,1-4.53,1H176.38a5.18,5.18,0,0,1-1.41-.21,4.74,4.74,0,0,1-1.33-.6,4,4,0,0,1-1-.91,1.81,1.81,0,0,1-.41-1.14V27.72a2.18,2.18,0,0,1,1.12-1.91A4.88,4.88,0,0,1,176,25.1h21.13a11.64,11.64,0,0,1,3.89.56,6.13,6.13,0,0,1,2.48,1.56,5.94,5.94,0,0,1,1.34,2.41A11.41,11.41,0,0,1,205.24,32.78Zm-26,18.41h16.6a2.84,2.84,0,0,0,2.08-.56,2.67,2.67,0,0,0,.5-1.8V46.21a2.27,2.27,0,0,0-.72-1.93,4,4,0,0,0-2.38-.54h-9.26a1.7,1.7,0,0,1-1.12-.37,1.11,1.11,0,0,1-.45-.9V39.3a1.14,1.14,0,0,1,.45-.91,1.75,1.75,0,0,1,1.12-.36h9.26a4.56,4.56,0,0,0,2.31-.45,1.92,1.92,0,0,0,.74-1.79V33.13a2.63,2.63,0,0,0-.5-1.72,2.6,2.6,0,0,0-2-.6h-16.6Z"/><path class="cls-1" d="M237.4,43.66c.19.23.52.68,1,1.33s1,1.42,1.67,2.28,1.3,1.76,2,2.7L244,52.63c.59.84,1.06,1.55,1.43,2.13a3.39,3.39,0,0,1,.55,1.1,1.14,1.14,0,0,1-.24.73,1,1,0,0,1-.86.31h-5.25a2,2,0,0,1-.9-.17,1.76,1.76,0,0,1-.62-.6l-8.64-12.35H219.37V55.55a1.54,1.54,0,0,1-.31.94,1.22,1.22,0,0,1-1,.41h-4.34a1.28,1.28,0,0,1-1.05-.41,1.45,1.45,0,0,1-.34-.94V39.38a1.49,1.49,0,0,1,.31-.93,1.35,1.35,0,0,1,1.08-.38h20.75a4.37,4.37,0,0,0,1.74-.29,2.31,2.31,0,0,0,1-.79,3.13,3.13,0,0,0,.45-1.16,8.11,8.11,0,0,0,0-2.78,3.13,3.13,0,0,0-.45-1.16,2.23,2.23,0,0,0-1-.79,4.37,4.37,0,0,0-1.74-.29H213.69a1.35,1.35,0,0,1-1.08-.38,1.49,1.49,0,0,1-.31-.93V26.45a1.54,1.54,0,0,1,.31-.94,1.26,1.26,0,0,1,1.08-.41h22a11.81,11.81,0,0,1,4.49.73,7,7,0,0,1,2.79,2,7.64,7.64,0,0,1,1.45,3,14.57,14.57,0,0,1,.43,3.63,16,16,0,0,1-.31,3.18,8,8,0,0,1-1.14,2.82,7.13,7.13,0,0,1-2.27,2.12A8.74,8.74,0,0,1,237.4,43.66Z"/><path class="cls-1" d="M257.48,25.1a2.3,2.3,0,0,1,.81.23c.35.16.53.53.53,1.12V55.59c0,.59-.18,1-.53,1.12a2.3,2.3,0,0,1-.81.23h-4.39a2.3,2.3,0,0,1-.81-.23c-.35-.16-.52-.53-.52-1.12V26.45c0-.59.17-1,.52-1.12a2.3,2.3,0,0,1,.81-.23Z"/><path class="cls-1" d="M299.42,55.2a1.14,1.14,0,0,1,.33.7c0,.67-.37,1-1.1,1h-5.53a2.16,2.16,0,0,1-1-.17,3.44,3.44,0,0,1-.64-.64l-9.64-11-9.68,11.08a3.39,3.39,0,0,1-.69.6,2.21,2.21,0,0,1-1,.17h-5.25q-1.05,0-1-.93a1.17,1.17,0,0,1,.34-.77l13.12-15L265.78,26.8a1.18,1.18,0,0,1-.28-.77q0-.93,1.05-.93h5.53a2.4,2.4,0,0,1,1,.17,2.1,2.1,0,0,1,.69.6l8.44,9.88,9-9.88a3.16,3.16,0,0,1,.7-.6,2.13,2.13,0,0,1,1-.17h5.25c.73,0,1.1.31,1.1.93a1,1,0,0,1-.34.77L286.63,40.42Z"/><path class="cls-1" d="M333.77,25.1a1.19,1.19,0,0,1,1,.41,1.48,1.48,0,0,1,.31.94c0,.23,0,.59.07,1.08a8.8,8.8,0,0,1,0,1.45,2.93,2.93,0,0,1-.36,1.27,1.12,1.12,0,0,1-1.07.56H316.64a7.32,7.32,0,0,0-2.82.43,3.06,3.06,0,0,0-1.47,1.19,4.2,4.2,0,0,0-.58,1.8q-.09,1-.09,2.25v9c0,.79,0,1.55.09,2.25a4.08,4.08,0,0,0,.58,1.82,3.17,3.17,0,0,0,1.47,1.19,7.09,7.09,0,0,0,2.82.45h17.13a1.21,1.21,0,0,1,1,.4,1.51,1.51,0,0,1,.31.95c0,.26,0,.63.07,1.12a8.92,8.92,0,0,1,0,1.46,2.74,2.74,0,0,1-.36,1.26,1.15,1.15,0,0,1-1.07.52H316.4a17,17,0,0,1-6-.89,8.35,8.35,0,0,1-3.6-2.47,8.61,8.61,0,0,1-1.74-3.82,25.11,25.11,0,0,1-.45-4.94v-7.6a25.19,25.19,0,0,1,.43-4.84A8,8,0,0,1,310.37,26a16.64,16.64,0,0,1,6-.91Z"/><path class="cls-1" d="M413.64,25.1a17.73,17.73,0,0,1,6.37,1A9.6,9.6,0,0,1,424,28.8a10,10,0,0,1,2,4.1,22.71,22.71,0,0,1,.54,5.09v6a22.94,22.94,0,0,1-.54,5.13,9.75,9.75,0,0,1-2,4.07,9.48,9.48,0,0,1-3.94,2.7,17.49,17.49,0,0,1-6.37,1H397.37a5.12,5.12,0,0,1-1.4-.21,4.8,4.8,0,0,1-1.34-.6,4,4,0,0,1-1-.91,1.81,1.81,0,0,1-.41-1.14V27.72a2.2,2.2,0,0,1,1.12-1.91A4.88,4.88,0,0,1,397,25.1Zm-.14,26.09a8.48,8.48,0,0,0,3.22-.5,3.87,3.87,0,0,0,1.76-1.41,5.18,5.18,0,0,0,.77-2.11,18.9,18.9,0,0,0,.16-2.58V37.41a19.05,19.05,0,0,0-.16-2.59,5,5,0,0,0-.77-2.08,4,4,0,0,0-1.76-1.41,8.07,8.07,0,0,0-3.22-.52H400.28V51.19Z"/><path class="cls-1" d="M461.49,25.1a2.3,2.3,0,0,1,.81.23c.35.16.53.53.53,1.12v3c0,.59-.18,1-.53,1.12a2.3,2.3,0,0,1-.81.23H434.06a2.26,2.26,0,0,1-.79-.21c-.33-.14-.5-.51-.5-1.1v-3c0-.62.17-1,.5-1.16a2.17,2.17,0,0,1,.79-.23ZM439.93,47.68a3,3,0,0,0,1.26,2.74,6.67,6.67,0,0,0,3.46.77h16.79a1.35,1.35,0,0,1,1.08.38,1.49,1.49,0,0,1,.31.93v3.09a1.44,1.44,0,0,1-.31.92,1.32,1.32,0,0,1-1.08.39H444.51a17.44,17.44,0,0,1-5.7-.79,8.62,8.62,0,0,1-3.61-2.26,8.25,8.25,0,0,1-1.88-3.53,17.77,17.77,0,0,1-.55-4.61v-5.1a2.5,2.5,0,0,1,.19-.94,2,2,0,0,1,.65-.85,3.78,3.78,0,0,1,1.19-.6,6.35,6.35,0,0,1,1.84-.23h24.61a1.24,1.24,0,0,1,1,.39,1.44,1.44,0,0,1,.31.92v3.05a1.57,1.57,0,0,1-.31.95,1.22,1.22,0,0,1-1,.4H439.93Z"/></g></g></svg>