<svg xmlns="http://www.w3.org/2000/svg" xmlns:xlink="http://www.w3.org/1999/xlink" viewBox="0 0 500 500"><defs><style>.cls-1{fill:url(#linear-gradient);}.cls-2{fill:url(#linear-gradient-2);}.cls-3{fill:url(#linear-gradient-3);}.cls-4{fill:url(#linear-gradient-4);}.cls-5{fill:url(#linear-gradient-5);}.cls-6{fill:url(#linear-gradient-6);}.cls-7{fill:#41d2f2;}</style><linearGradient id="linear-gradient" x1="817.69" y1="-349.78" x2="-106.85" y2="627.03" gradientUnits="userSpaceOnUse"><stop offset="0" stop-color="#012840"/><stop offset="1" stop-color="#0d0d0d"/></linearGradient><linearGradient id="linear-gradient-2" x1="174.07" y1="231" x2="110.82" y2="265.96" gradientUnits="userSpaceOnUse"><stop offset="0.21" stop-color="#41d2f2"/><stop offset="0.52" stop-color="#0367a6"/><stop offset="0.7" stop-color="#024873"/><stop offset="0.89" stop-color="#012840"/></linearGradient><linearGradient id="linear-gradient-3" x1="100.7" y1="261.16" x2="179.78" y2="253.41" gradientUnits="userSpaceOnUse"><stop offset="0" stop-color="#012840"/><stop offset="0.11" stop-color="#024873"/><stop offset="0.33" stop-color="#0367a6"/><stop offset="0.72" stop-color="#41d2f2"/><stop offset="0.99" stop-color="#41d2f2"/><stop offset="1" stop-color="#41d2f2"/></linearGradient><linearGradient id="linear-gradient-4" x1="107.97" y1="252.74" x2="158.06" y2="228.68" xlink:href="#linear-gradient-3"/><linearGradient id="linear-gradient-5" x1="131.09" y1="239.85" x2="143.41" y2="236.3" xlink:href="#linear-gradient-3"/><linearGradient id="linear-gradient-6" x1="128.63" y1="241.29" x2="140.95" y2="237.74" xlink:href="#linear-gradient-3"/></defs><g id="Layer_2" data-name="Layer 2"><g id="Layer_1-2" data-name="Layer 1"><rect class="cls-1" width="500" height="500"/><polygon class="cls-2" points="134.89 249.02 134.89 249.01 133.39 248.15 131.88 247.28 130.38 246.41 128.88 245.54 128.88 245.54 127.37 244.67 125.87 243.81 124.37 242.94 122.86 242.07 121.36 241.2 119.86 240.33 118.35 239.47 118.35 244.67 119.86 245.54 121.36 246.41 122.86 247.28 124.37 248.15 125.87 249.01 127.37 249.88 128.88 250.75 130.38 251.62 131.88 252.49 133.39 253.35 133.39 256.82 131.88 255.96 130.38 255.09 128.88 254.22 127.37 253.35 125.87 252.49 124.37 251.62 122.86 250.75 121.36 249.88 119.86 249.01 118.35 248.15 118.35 262.04 119.86 262.9 121.36 263.77 122.86 264.64 122.86 255.96 124.37 256.82 125.87 257.69 127.37 260.29 127.37 260.3 127.38 260.3 128.88 262.9 128.88 262.9 128.88 262.9 130.38 265.51 131.88 268.11 133.39 270.71 134.89 271.58 136.39 272.45 137.9 273.32 137.9 269.85 136.39 267.24 136.39 267.24 134.89 264.64 133.39 262.03 134.89 262.9 136.39 263.77 137.9 264.64 137.9 250.75 136.39 249.88 134.89 249.02"/><polygon class="cls-3" points="147.07 251.62 148.57 250.75 150.07 249.88 151.58 249.01 153.08 248.15 154.59 247.28 156.09 246.41 157.59 245.54 159.1 244.67 159.1 239.47 157.59 240.33 156.09 241.2 154.59 242.07 153.08 242.94 151.58 243.81 150.07 244.67 148.57 245.54 148.57 245.54 147.07 246.41 145.56 247.28 144.06 248.15 142.56 249.01 141.05 249.88 139.55 250.75 139.55 273.32 141.05 272.45 142.56 271.58 144.06 270.71 145.56 269.85 147.07 268.98 148.57 268.11 150.07 267.24 151.58 266.37 153.08 265.51 154.59 264.64 156.09 263.77 157.59 262.9 159.1 262.04 159.1 256.82 157.59 257.69 156.09 258.56 154.59 259.43 153.08 260.3 151.58 261.16 150.07 262.03 148.57 262.9 147.07 263.77 144.06 265.5 144.06 253.35 147.07 251.62"/><path class="cls-4" d="M141.73,247.51l1.51-.87,1.5-.86,1.5-.87,1.51-.87,1.5-.87,1.5-.86,1.51-.87,1.5-.87,1.5-.87,1.5-.87,1.51-.86-1.51-.87-1.5-.87h0l-3-1.74-1.51-.86-1.5-.87-1.5-.87-1.51-.87-1.5-.87-1.5-.86-1.51-.87-1.5-.87-1.5-.87-1.51.87-1.5.87h0l-1.5.87-1.51.86-1.5.87-1.51.87-1.5.87h0l-1.5.87-1.51.86-1.5.87-1.5.87-1.51.87-1.5.87,3,1.73,1.5.87,1.5.87,1.51.87,1.5.86,1.5.87,1.51.87,1.5.87,1.51.86,1.5.87,1.5.87,1.51.87,1.5-.87Zm-6-3.47-1.5-.87-1.51-.86-1.5-.88-1.51-.86-1.5-.87V238h0v-1.74l1.5-.87,1.51-.87,1.5-.87,1.5-.86,1.51-.87h6l1.51.87,1.5.87h0l1.5.86,3,1.74v3.47l-1.51.87-1.5.86h0l-1.5.87-1.51.87-1.5.87Z"/><polygon class="cls-5" points="141.49 236.42 141.49 237.28 141.49 237.29 141.49 237.29 141.49 239.02 143 239.89 144.5 239.02 144.5 235.55 143 234.69 136.98 234.69 135.48 235.55 136.98 236.42 141.49 236.42"/><polygon class="cls-6" points="140.47 239.62 135.96 239.62 135.96 238.75 135.96 237.01 134.46 236.14 132.95 237.01 132.95 240.48 134.45 241.35 137.46 241.35 137.46 241.35 140.47 241.35 141.98 240.48 140.47 239.62"/><path class="cls-7" d="M336.87,247.41l-8-5.83a4.75,4.75,0,0,0-1.15-.63h0c0,3,1.66,5.93,4.62,8.09l1.15.84a.15.15,0,0,1,0,.24l-1.14.84c-3,2.16-4.63,5.07-4.63,8.09a5.08,5.08,0,0,0,1.15-.62l8-5.84A3,3,0,0,0,336.87,247.41Z"/><path class="cls-7" d="M313.83,247.41a3,3,0,0,0,0,5.18l8,5.84a5.34,5.34,0,0,0,1.15.63c0-3-1.66-5.93-4.63-8.1l-1.15-.84a.15.15,0,0,1,0-.24l1.16-.84c3-2.17,4.62-5.07,4.62-8.09h0a5.38,5.38,0,0,0-1.15.64Z"/><path class="cls-7" d="M185,251.5c.11.14.3.39.57.76l1,1.3c.37.49.74,1,1.13,1.53l1.09,1.52c.33.48.6.88.81,1.21a1.79,1.79,0,0,1,.31.62.68.68,0,0,1-.13.42.59.59,0,0,1-.49.18h-3a1.18,1.18,0,0,1-.51-.1,1,1,0,0,1-.36-.34l-4.91-7h-5.73v6.7a.94.94,0,0,1-.17.54.72.72,0,0,1-.59.23h-2.47a.72.72,0,0,1-.59-.23.83.83,0,0,1-.19-.54v-9.2a.8.8,0,0,1,.17-.53.73.73,0,0,1,.61-.22h11.81a2.43,2.43,0,0,0,1-.16,1.27,1.27,0,0,0,.56-.45,1.94,1.94,0,0,0,.26-.66,5.06,5.06,0,0,0,.06-.79,4.88,4.88,0,0,0-.06-.79,1.94,1.94,0,0,0-.26-.66,1.27,1.27,0,0,0-.56-.45,2.41,2.41,0,0,0-1-.17H171.54a.73.73,0,0,1-.61-.22.78.78,0,0,1-.17-.52v-1.74a.87.87,0,0,1,.17-.54.74.74,0,0,1,.61-.23h12.52a6.66,6.66,0,0,1,2.55.42,4,4,0,0,1,1.59,1.14,4.44,4.44,0,0,1,.82,1.69,8.1,8.1,0,0,1,.25,2.07,9.18,9.18,0,0,1-.18,1.81,4.43,4.43,0,0,1-.65,1.6,4.06,4.06,0,0,1-1.29,1.21A4.92,4.92,0,0,1,185,251.5Z"/><path class="cls-7" d="M211.69,240.94a.71.71,0,0,1,.58.22.81.81,0,0,1,.18.53v10.47a14.92,14.92,0,0,1-.24,2.78,5,5,0,0,1-1,2.17,4.67,4.67,0,0,1-2,1.42,9.82,9.82,0,0,1-3.47.51h-6.1a9.72,9.72,0,0,1-3.46-.51,4.65,4.65,0,0,1-2-1.42,4.88,4.88,0,0,1-1-2.17,14.08,14.08,0,0,1-.25-2.78V241.69a.81.81,0,0,1,.18-.53.76.76,0,0,1,.61-.22h2.47a.71.71,0,0,1,.58.22.81.81,0,0,1,.18.53v10.82c0,.46,0,.88.05,1.28a2.5,2.5,0,0,0,.33,1,1.73,1.73,0,0,0,.84.7,4,4,0,0,0,1.6.26h5.87a4,4,0,0,0,1.6-.26,1.74,1.74,0,0,0,.83-.69,2.54,2.54,0,0,0,.31-1c0-.4.05-.83.05-1.29V241.69a.81.81,0,0,1,.18-.53.72.72,0,0,1,.58-.22Z"/><path class="cls-7" d="M235.09,245.31v1.19a5.64,5.64,0,0,1-.12,1.16,4.76,4.76,0,0,1-.4,1.09,3.26,3.26,0,0,1-.84,1,3.21,3.21,0,0,1,1.18,1.49,5.09,5.09,0,0,1,.31,1.78c0,.67,0,1.36,0,2.07a5.15,5.15,0,0,1-.43,1.95,3.29,3.29,0,0,1-1.29,1.44,4.74,4.74,0,0,1-2.58.58H218.67a2.63,2.63,0,0,1-.81-.13,2.76,2.76,0,0,1-.76-.34,2.32,2.32,0,0,1-.57-.51,1.07,1.07,0,0,1-.23-.65v-15a1.25,1.25,0,0,1,.64-1.09,2.77,2.77,0,0,1,1.51-.41h12a6.68,6.68,0,0,1,2.22.32,3.59,3.59,0,0,1,1.41.89,3.47,3.47,0,0,1,.76,1.37A6.64,6.64,0,0,1,235.09,245.31Zm-14.77,10.48h9.45a1.62,1.62,0,0,0,1.18-.32,1.52,1.52,0,0,0,.28-1V253a1.28,1.28,0,0,0-.4-1.09,2.29,2.29,0,0,0-1.36-.31H224.2a1,1,0,0,1-.64-.21.64.64,0,0,1-.25-.52V249a.63.63,0,0,1,.25-.51,1,1,0,0,1,.64-.21h5.27a2.78,2.78,0,0,0,1.32-.25,1.11,1.11,0,0,0,.42-1v-1.51a1.16,1.16,0,0,0-1.44-1.32h-9.45Z"/><path class="cls-7" d="M253.38,251.5c.11.14.3.39.57.76s.59.81,1,1.3.74,1,1.13,1.53l1.09,1.52c.33.48.6.88.81,1.21a1.79,1.79,0,0,1,.31.62.68.68,0,0,1-.13.42.59.59,0,0,1-.49.18h-3a1.18,1.18,0,0,1-.51-.1,1,1,0,0,1-.36-.34l-4.91-7h-5.73v6.7a.94.94,0,0,1-.17.54.72.72,0,0,1-.59.23h-2.47a.72.72,0,0,1-.59-.23.83.83,0,0,1-.19-.54v-9.2a.8.8,0,0,1,.17-.53.73.73,0,0,1,.61-.22H251.7a2.43,2.43,0,0,0,1-.16,1.27,1.27,0,0,0,.56-.45,1.94,1.94,0,0,0,.26-.66,5.06,5.06,0,0,0,.06-.79,4.88,4.88,0,0,0-.06-.79,1.94,1.94,0,0,0-.26-.66,1.27,1.27,0,0,0-.56-.45,2.41,2.41,0,0,0-1-.17H239.89a.73.73,0,0,1-.61-.22.78.78,0,0,1-.17-.52v-1.74a.87.87,0,0,1,.17-.54.74.74,0,0,1,.61-.23h12.52a6.66,6.66,0,0,1,2.55.42,4,4,0,0,1,1.59,1.14,4.44,4.44,0,0,1,.82,1.69,8.1,8.1,0,0,1,.25,2.07,9.18,9.18,0,0,1-.18,1.81,4.43,4.43,0,0,1-.65,1.6,4.06,4.06,0,0,1-1.29,1.21A4.92,4.92,0,0,1,253.38,251.5Z"/><path class="cls-7" d="M264.81,240.94a1.42,1.42,0,0,1,.46.13c.2.09.3.3.3.64v16.58c0,.34-.1.55-.3.64a1.42,1.42,0,0,1-.46.13h-2.5a1.49,1.49,0,0,1-.46-.13c-.2-.09-.3-.3-.3-.64V241.71c0-.34.1-.55.3-.64a1.49,1.49,0,0,1,.46-.13Z"/><path class="cls-7" d="M288.67,258.07a.63.63,0,0,1,.19.39c0,.39-.21.58-.62.58h-3.15a1.27,1.27,0,0,1-.59-.1,1.81,1.81,0,0,1-.36-.37l-5.49-6.28-5.51,6.31a1.62,1.62,0,0,1-.39.34,1.27,1.27,0,0,1-.56.1h-3c-.4,0-.6-.18-.6-.53a.66.66,0,0,1,.19-.44l7.47-8.54-6.74-7.62a.72.72,0,0,1-.16-.44c0-.35.2-.53.6-.53h3.15a1.35,1.35,0,0,1,.55.1,1.23,1.23,0,0,1,.4.34l4.8,5.62,5.1-5.62a1.85,1.85,0,0,1,.4-.34,1.25,1.25,0,0,1,.55-.1h3c.42,0,.63.18.63.53a.61.61,0,0,1-.19.44l-7,7.75Z"/><path class="cls-7" d="M308.21,240.94a.71.71,0,0,1,.59.23.87.87,0,0,1,.17.54c0,.13,0,.34,0,.62a5.61,5.61,0,0,1,0,.82,1.83,1.83,0,0,1-.2.72.64.64,0,0,1-.62.32h-9.74a4.24,4.24,0,0,0-1.6.24,1.81,1.81,0,0,0-.84.68,2.45,2.45,0,0,0-.33,1,12.55,12.55,0,0,0-.05,1.28v5.12c0,.45,0,.88.05,1.28a2.32,2.32,0,0,0,.33,1,1.75,1.75,0,0,0,.84.68,4,4,0,0,0,1.6.26h9.74a.68.68,0,0,1,.59.23.82.82,0,0,1,.17.53c0,.15,0,.36,0,.64a5.89,5.89,0,0,1,0,.84,1.73,1.73,0,0,1-.2.71.67.67,0,0,1-.62.3h-9.88a9.55,9.55,0,0,1-3.4-.51,4.79,4.79,0,0,1-2.05-1.4,4.91,4.91,0,0,1-1-2.18,14.29,14.29,0,0,1-.26-2.81v-4.32a14.78,14.78,0,0,1,.24-2.76,4.91,4.91,0,0,1,1-2.17,4.76,4.76,0,0,1,2-1.43,9.41,9.41,0,0,1,3.43-.52Z"/><path class="cls-7" d="M353.66,240.94a10.1,10.1,0,0,1,3.63.56,5.48,5.48,0,0,1,2.24,1.55,5.68,5.68,0,0,1,1.12,2.33,12.64,12.64,0,0,1,.31,2.9v3.42a12.7,12.7,0,0,1-.31,2.92,5.16,5.16,0,0,1-3.36,3.86,10.1,10.1,0,0,1-3.63.56h-9.25a2.57,2.57,0,0,1-.8-.13,2.69,2.69,0,0,1-.77-.34,2.11,2.11,0,0,1-.56-.51,1,1,0,0,1-.24-.65v-15a1.25,1.25,0,0,1,.64-1.09,2.77,2.77,0,0,1,1.51-.41Zm-.08,14.85a4.72,4.72,0,0,0,1.83-.29,2.22,2.22,0,0,0,1-.8,2.87,2.87,0,0,0,.43-1.2A11.08,11.08,0,0,0,357,252V248a11.08,11.08,0,0,0-.1-1.47,2.82,2.82,0,0,0-.43-1.19,2.29,2.29,0,0,0-1-.8,4.52,4.52,0,0,0-1.83-.3h-7.52v11.6Z"/><path class="cls-7" d="M380.89,240.94a1.42,1.42,0,0,1,.46.13c.2.09.3.3.3.64v1.71c0,.34-.1.55-.3.64a1.2,1.2,0,0,1-.46.13H365.28a1.25,1.25,0,0,1-.45-.12c-.19-.08-.28-.29-.28-.62v-1.72c0-.35.09-.57.28-.66a1.32,1.32,0,0,1,.45-.13Zm-12.27,12.85a1.69,1.69,0,0,0,.72,1.56,3.78,3.78,0,0,0,2,.44h9.55a.73.73,0,0,1,.61.22.78.78,0,0,1,.18.52v1.76a.83.83,0,0,1-.18.53.76.76,0,0,1-.61.22h-9.64a10,10,0,0,1-3.24-.45,4.88,4.88,0,0,1-2.05-1.29,4.7,4.7,0,0,1-1.07-2,10.12,10.12,0,0,1-.31-2.62v-2.9a1.31,1.31,0,0,1,.11-.54,1.17,1.17,0,0,1,.36-.48,2.06,2.06,0,0,1,.68-.34,3.49,3.49,0,0,1,1.05-.13h14a.71.71,0,0,1,.59.22.83.83,0,0,1,.17.52v1.74a.94.94,0,0,1-.17.54.72.72,0,0,1-.59.23H368.62Z"/></g></g></svg>