<svg xmlns="http://www.w3.org/2000/svg" viewBox="0 0 463.6 250.06"><defs><style>.cls-1{fill:#231f20;}</style></defs><g id="Layer_2" data-name="Layer 2"><g id="Layer_1-2" data-name="Layer 1"><polygon class="cls-1" points="218.29 83.7 218.29 83.69 212.65 80.44 207.01 77.19 201.38 73.94 195.75 70.69 195.75 70.68 190.11 67.43 184.48 64.18 178.84 60.93 173.2 57.68 167.58 54.43 161.94 51.16 156.3 47.91 156.3 67.43 161.94 70.68 167.58 73.94 173.2 77.19 178.84 80.44 184.48 83.69 190.11 86.94 195.75 90.2 201.38 93.45 207.01 96.7 212.65 99.95 212.65 112.97 207.01 109.72 201.38 106.47 195.75 103.22 190.11 99.95 184.48 96.7 178.84 93.45 173.2 90.2 167.58 86.95 161.94 83.69 156.3 80.44 156.3 132.49 161.94 135.74 167.58 138.99 173.2 142.24 173.2 109.72 178.84 112.97 184.48 116.22 190.11 125.97 190.11 125.98 190.12 125.99 195.75 135.73 195.75 135.74 195.76 135.74 201.38 145.51 207.01 155.26 212.65 165.02 218.29 168.27 223.91 171.52 229.55 174.78 229.55 161.77 223.91 152.01 223.91 151.99 218.29 142.25 212.65 132.48 218.29 135.74 223.91 138.99 229.55 142.24 229.55 90.2 223.91 86.95 218.29 83.7"/><polygon class="cls-1" points="263.92 93.45 269.55 90.2 275.19 86.94 280.83 83.69 286.45 80.44 292.09 77.19 297.73 73.93 303.36 70.68 308.99 67.43 308.99 47.91 303.36 51.16 297.73 54.41 292.09 57.68 286.45 60.93 280.83 64.18 275.19 67.43 269.55 70.68 269.55 70.69 263.92 73.94 258.28 77.19 252.65 80.44 247.02 83.69 241.38 86.95 235.74 90.2 235.74 174.78 241.38 171.52 247.02 168.27 252.65 165.02 258.28 161.77 263.92 158.51 269.55 155.26 275.19 152.01 280.83 148.76 286.45 145.51 292.09 142.24 297.73 138.99 303.36 135.74 308.99 132.49 308.99 112.97 303.36 116.22 297.73 119.47 292.09 122.73 286.45 125.98 280.83 129.23 275.19 132.48 269.55 135.74 263.92 138.99 252.65 145.49 252.65 99.95 263.92 93.45"/><path class="cls-1" d="M243.92,78.07l5.64-3.25,5.62-3.25,5.64-3.25,5.64-3.27,5.63-3.25,5.63-3.25,5.64-3.25L289,52l5.64-3.25,5.62-3.25,5.64-3.25L300.25,39l-5.62-3.26h0l-11.26-6.5L277.72,26l-5.63-3.27-5.63-3.25-5.64-3.25L255.18,13l-5.62-3.25L243.92,6.5l-5.64-3.25L232.65,0,227,3.25,221.39,6.5h0l-5.63,3.26L210.11,13l-5.64,3.25-5.62,3.25-5.63,3.25h0L187.57,26l-5.63,3.25-5.64,3.25-5.62,3.25L165,39l-5.64,3.25,11.28,6.5L176.3,52l5.64,3.26,5.63,3.25,5.64,3.25,5.64,3.25,5.62,3.27,5.64,3.25,5.64,3.25,5.63,3.25L227,81.33l5.64,3.25,5.63-3.25Zm-22.53-13-5.64-3.25-5.64-3.25-5.63-3.26L198.85,52l-5.63-3.25v-6.5h0V35.78l5.62-3.25,5.65-3.25L210.11,26l5.63-3.25,5.64-3.25h22.54l5.64,3.25L255.18,26h0l5.63,3.25,11.28,6.5v13L266.45,52l-5.63,3.25h0l-5.63,3.25-5.64,3.26-5.63,3.25Z"/><polygon class="cls-1" points="243.03 36.49 243.03 39.73 243.01 39.74 243.03 39.76 243.03 46.26 248.66 49.51 254.29 46.26 254.29 33.24 248.66 30 226.12 30 220.5 33.24 226.12 36.49 243.03 36.49"/><polygon class="cls-1" points="239.2 48.48 222.28 48.48 222.28 45.23 222.29 38.71 216.65 35.46 211.02 38.72 211.02 51.73 216.64 54.98 227.91 54.98 227.92 54.99 239.18 54.99 244.84 51.73 239.2 48.48"/><path class="cls-1" d="M365.16,224.46,347.6,211.63a10.62,10.62,0,0,0-2.52-1.38h0c0,6.64,3.65,13,10.16,17.78l2.52,1.85a.33.33,0,0,1,.14.26.35.35,0,0,1-.14.26l-2.51,1.84c-6.52,4.76-10.17,11.14-10.17,17.79a11.32,11.32,0,0,0,2.52-1.36l17.56-12.85C369.46,232.69,369.46,227.6,365.16,224.46Z"/><path class="cls-1" d="M314.51,224.46c-4.27,3.14-4.27,8.23,0,11.37l17.57,12.85a11.46,11.46,0,0,0,2.53,1.38c0-6.65-3.65-13-10.17-17.8l-2.52-1.85a.32.32,0,0,1-.14-.26.3.3,0,0,1,.14-.26l2.54-1.86c6.51-4.76,10.15-11.14,10.15-17.79h0a11.52,11.52,0,0,0-2.53,1.4Z"/><path class="cls-1" d="M31.39,233.45c.24.29.65.85,1.25,1.67s1.29,1.77,2.09,2.84l2.48,3.38c.85,1.18,1.65,2.29,2.38,3.33s1.33,1.94,1.79,2.66a4,4,0,0,1,.69,1.38,1.42,1.42,0,0,1-.3.91,1.28,1.28,0,0,1-1.07.39H34.13a2.42,2.42,0,0,1-1.13-.22,2.11,2.11,0,0,1-.78-.75L21.42,233.6H8.83v14.72a1.88,1.88,0,0,1-.39,1.18,1.5,1.5,0,0,1-1.28.51H1.73a1.59,1.59,0,0,1-1.31-.51A1.8,1.8,0,0,1,0,248.32V228.09a1.76,1.76,0,0,1,.39-1.15,1.6,1.6,0,0,1,1.34-.49h26a5.47,5.47,0,0,0,2.18-.36,2.82,2.82,0,0,0,1.22-1,3.8,3.8,0,0,0,.57-1.45,9.52,9.52,0,0,0,.15-1.73,9.64,9.64,0,0,0-.15-1.74,3.8,3.8,0,0,0-.57-1.45,2.82,2.82,0,0,0-1.22-1,5.47,5.47,0,0,0-2.18-.36h-26a1.63,1.63,0,0,1-1.34-.48A1.81,1.81,0,0,1,0,215.74v-3.82a1.88,1.88,0,0,1,.39-1.18,1.58,1.58,0,0,1,1.34-.51H29.24a14.75,14.75,0,0,1,5.61.92,8.66,8.66,0,0,1,3.49,2.51,9.66,9.66,0,0,1,1.82,3.72,18.34,18.34,0,0,1,.54,4.54,20.34,20.34,0,0,1-.39,4,9.79,9.79,0,0,1-1.43,3.52A8.87,8.87,0,0,1,36,232.08,11.06,11.06,0,0,1,31.39,233.45Z"/><path class="cls-1" d="M90,210.23a1.57,1.57,0,0,1,1.28.49,1.79,1.79,0,0,1,.39,1.16v23a32.08,32.08,0,0,1-.54,6.11A10.94,10.94,0,0,1,89,245.78a10.17,10.17,0,0,1-4.47,3.12A21.67,21.67,0,0,1,76.92,250H63.49a21.67,21.67,0,0,1-7.61-1.11,10.11,10.11,0,0,1-4.47-3.12A10.83,10.83,0,0,1,49.29,241a32.08,32.08,0,0,1-.54-6.11v-23a1.79,1.79,0,0,1,.39-1.16,1.64,1.64,0,0,1,1.34-.49h5.43a1.57,1.57,0,0,1,1.29.49,1.84,1.84,0,0,1,.38,1.16v23.79c0,1,0,1.93.12,2.8a5.24,5.24,0,0,0,.72,2.29,3.93,3.93,0,0,0,1.85,1.55,8.93,8.93,0,0,0,3.52.55H76.68a9,9,0,0,0,3.52-.55A3.86,3.86,0,0,0,82,240.79a5.41,5.41,0,0,0,.69-2.29c.07-.89.11-1.83.11-2.83V211.88a1.79,1.79,0,0,1,.39-1.16,1.57,1.57,0,0,1,1.29-.49Z"/><path class="cls-1" d="M141.42,219.84v2.61a12,12,0,0,1-.27,2.55,9.1,9.1,0,0,1-.86,2.39,7,7,0,0,1-1.85,2.15,7.11,7.11,0,0,1,2.59,3.28,11.3,11.3,0,0,1,.69,3.91c0,1.49,0,3-.09,4.57a11.56,11.56,0,0,1-.95,4.27,7.28,7.28,0,0,1-2.84,3.18,10.54,10.54,0,0,1-5.67,1.26H105.32a6.28,6.28,0,0,1-1.76-.27,6,6,0,0,1-1.67-.74,5.09,5.09,0,0,1-1.25-1.14,2.25,2.25,0,0,1-.51-1.42V213.52a2.72,2.72,0,0,1,1.4-2.39,6,6,0,0,1,3.31-.9h26.44a14.61,14.61,0,0,1,4.86.7,7.68,7.68,0,0,1,3.1,2,7.21,7.21,0,0,1,1.67,3A14.07,14.07,0,0,1,141.42,219.84Zm-32.46,23h20.77a3.49,3.49,0,0,0,2.59-.7,3.28,3.28,0,0,0,.63-2.24v-3.28a2.87,2.87,0,0,0-.9-2.42,5,5,0,0,0-3-.67H117.49a2.15,2.15,0,0,1-1.4-.46,1.4,1.4,0,0,1-.57-1.13v-4a1.42,1.42,0,0,1,.57-1.14,2.2,2.2,0,0,1,1.4-.46h11.58a5.79,5.79,0,0,0,2.89-.55,2.4,2.4,0,0,0,.93-2.24v-3.34a2.55,2.55,0,0,0-3.16-2.89H109Z"/><path class="cls-1" d="M181.64,233.45c.24.29.66.85,1.25,1.67L185,238c.8,1.08,1.62,2.21,2.48,3.38l2.39,3.33c.73,1.05,1.33,1.94,1.79,2.66a4.1,4.1,0,0,1,.68,1.38,1.42,1.42,0,0,1-.3.91A1.27,1.27,0,0,1,191,250h-6.56a2.43,2.43,0,0,1-1.14-.22,2,2,0,0,1-.77-.75l-10.8-15.44h-12.6v14.72a1.87,1.87,0,0,1-.38,1.18,1.52,1.52,0,0,1-1.29.51H152a1.6,1.6,0,0,1-1.31-.51,1.8,1.8,0,0,1-.42-1.18V228.09a1.76,1.76,0,0,1,.39-1.15,1.61,1.61,0,0,1,1.34-.49h26a5.43,5.43,0,0,0,2.18-.36,2.76,2.76,0,0,0,1.22-1,3.8,3.8,0,0,0,.57-1.45,9.52,9.52,0,0,0,.15-1.73,9.64,9.64,0,0,0-.15-1.74,3.8,3.8,0,0,0-.57-1.45,2.76,2.76,0,0,0-1.22-1,5.43,5.43,0,0,0-2.18-.36H152a1.64,1.64,0,0,1-1.34-.48,1.81,1.81,0,0,1-.39-1.16v-3.82a1.88,1.88,0,0,1,.39-1.18,1.59,1.59,0,0,1,1.34-.51h27.51a14.75,14.75,0,0,1,5.61.92,8.59,8.59,0,0,1,3.49,2.51,9.52,9.52,0,0,1,1.82,3.72,18.34,18.34,0,0,1,.54,4.54,20.34,20.34,0,0,1-.39,4,9.61,9.61,0,0,1-1.43,3.52,8.94,8.94,0,0,1-2.83,2.66A11.16,11.16,0,0,1,181.64,233.45Z"/><path class="cls-1" d="M206.76,210.23a2.87,2.87,0,0,1,1,.29c.43.2.65.66.65,1.4v36.45c0,.74-.22,1.2-.65,1.4a2.87,2.87,0,0,1-1,.29h-5.49a2.83,2.83,0,0,1-1-.29c-.44-.2-.66-.66-.66-1.4V211.92c0-.74.22-1.2.66-1.4a2.83,2.83,0,0,1,1-.29Z"/><path class="cls-1" d="M259.21,247.88a1.44,1.44,0,0,1,.42.87c0,.84-.46,1.26-1.37,1.26h-6.92a2.53,2.53,0,0,1-1.29-.22,4.11,4.11,0,0,1-.8-.79l-12.06-13.81L225.08,249a3.59,3.59,0,0,1-.86.75A2.57,2.57,0,0,1,223,250h-6.56c-.88,0-1.31-.39-1.31-1.16a1.49,1.49,0,0,1,.41-1l16.41-18.77-14.8-16.75a1.52,1.52,0,0,1-.35-1c0-.77.43-1.16,1.31-1.16H225a2.86,2.86,0,0,1,1.22.22,2.69,2.69,0,0,1,.87.75l10.56,12.36,11.22-12.36a3.89,3.89,0,0,1,.87-.75,2.62,2.62,0,0,1,1.22-.22h6.56c.92,0,1.37.39,1.37,1.16a1.26,1.26,0,0,1-.41,1l-15.28,17Z"/><path class="cls-1" d="M302.18,210.23a1.51,1.51,0,0,1,1.28.51,1.88,1.88,0,0,1,.39,1.18c0,.29,0,.74.09,1.36a11,11,0,0,1,0,1.81,3.77,3.77,0,0,1-.45,1.59,1.42,1.42,0,0,1-1.34.7H280.75a9.4,9.4,0,0,0-3.52.53,3.84,3.84,0,0,0-1.85,1.5,5.19,5.19,0,0,0-.71,2.24q-.12,1.28-.12,2.82v11.25q0,1.5.12,2.82a5.07,5.07,0,0,0,.71,2.27,4.08,4.08,0,0,0,1.85,1.5,9,9,0,0,0,3.52.55h21.43a1.51,1.51,0,0,1,1.28.51,1.88,1.88,0,0,1,.39,1.18c0,.33,0,.79.09,1.4a11.33,11.33,0,0,1,0,1.84,3.48,3.48,0,0,1-.45,1.57,1.44,1.44,0,0,1-1.34.65H280.46A21.21,21.21,0,0,1,273,248.9a10.54,10.54,0,0,1-4.51-3.09,10.9,10.9,0,0,1-2.18-4.78,31.89,31.89,0,0,1-.56-6.18v-9.51a32.71,32.71,0,0,1,.53-6.06,10.75,10.75,0,0,1,2.15-4.77,10.54,10.54,0,0,1,4.51-3.14,20.9,20.9,0,0,1,7.55-1.14Z"/><path class="cls-1" d="M402.08,210.23a21.79,21.79,0,0,1,8,1.24,11.74,11.74,0,0,1,4.92,3.4,12.27,12.27,0,0,1,2.48,5.11,28,28,0,0,1,.68,6.38v7.53a28.23,28.23,0,0,1-.68,6.42A12.07,12.07,0,0,1,415,245.4a11.89,11.89,0,0,1-4.92,3.38,22,22,0,0,1-8,1.23H381.74a6.35,6.35,0,0,1-1.77-.27,6.15,6.15,0,0,1-1.67-.74,5.48,5.48,0,0,1-1.25-1.14,2.25,2.25,0,0,1-.51-1.42V213.52a2.71,2.71,0,0,1,1.41-2.39,6,6,0,0,1,3.31-.9Zm-.18,32.63a10.45,10.45,0,0,0,4-.62,4.82,4.82,0,0,0,2.21-1.77,6.23,6.23,0,0,0,.95-2.63,23.17,23.17,0,0,0,.21-3.23v-9a23.27,23.27,0,0,0-.21-3.23,6.09,6.09,0,0,0-.95-2.61,5,5,0,0,0-2.21-1.76,10.19,10.19,0,0,0-4-.65H385.38v25.48Z"/><path class="cls-1" d="M461.93,210.23a2.87,2.87,0,0,1,1,.29c.44.2.65.66.65,1.4v3.77c0,.74-.21,1.21-.65,1.4a2.87,2.87,0,0,1-1,.29H427.62a2.69,2.69,0,0,1-1-.27c-.42-.17-.63-.63-.63-1.37V212c0-.77.21-1.25.63-1.45a2.61,2.61,0,0,1,1-.29Zm-27,28.24a3.7,3.7,0,0,0,1.58,3.43,8.35,8.35,0,0,0,4.33,1h21a1.65,1.65,0,0,1,1.35.49,1.84,1.84,0,0,1,.38,1.16v3.86a1.86,1.86,0,0,1-.38,1.16,1.65,1.65,0,0,1-1.35.48H440.69a21.91,21.91,0,0,1-7.13-1,10.82,10.82,0,0,1-4.51-2.82,10.43,10.43,0,0,1-2.35-4.42A22.37,22.37,0,0,1,426,236v-6.37a3.15,3.15,0,0,1,.24-1.18,2.59,2.59,0,0,1,.81-1.07,4.41,4.41,0,0,1,1.49-.74,7.51,7.51,0,0,1,2.29-.29h30.8a1.56,1.56,0,0,1,1.28.48,1.79,1.79,0,0,1,.39,1.16v3.81a1.86,1.86,0,0,1-.39,1.18,1.51,1.51,0,0,1-1.28.51H435Z"/></g></g></svg>