<svg xmlns="http://www.w3.org/2000/svg" viewBox="0 0 259.05 297.74"><defs><style>.cls-1{fill:none;stroke:#231f20;stroke-miterlimit:10;stroke-width:0.25px;}</style></defs><g id="Layer_2" data-name="Layer 2"><g id="Layer_1-2" data-name="Layer 1"><polygon class="cls-1" points="0.13 75.99 128.03 149.83 128.03 297.52 0.13 223.68 0.13 75.99"/><line class="cls-1" x1="0.13" y1="212.32" x2="128.03" y2="286.16"/><line class="cls-1" x1="0.13" y1="200.95" x2="128.03" y2="274.8"/><line class="cls-1" x1="0.13" y1="189.59" x2="128.03" y2="263.44"/><line class="cls-1" x1="0.13" y1="178.23" x2="128.03" y2="252.08"/><line class="cls-1" x1="0.13" y1="166.87" x2="128.03" y2="240.72"/><line class="cls-1" x1="0.13" y1="155.51" x2="128.03" y2="229.36"/><line class="cls-1" x1="0.13" y1="144.15" x2="128.03" y2="218"/><line class="cls-1" x1="0.13" y1="132.79" x2="128.03" y2="206.63"/><line class="cls-1" x1="0.13" y1="121.43" x2="128.03" y2="195.27"/><line class="cls-1" x1="0.13" y1="110.07" x2="128.03" y2="183.91"/><line class="cls-1" x1="0.13" y1="98.71" x2="128.03" y2="172.55"/><line class="cls-1" x1="0.13" y1="87.35" x2="128.03" y2="161.19"/><line class="cls-1" x1="118.19" y1="144.15" x2="118.19" y2="291.84"/><line class="cls-1" x1="108.35" y1="138.47" x2="108.35" y2="286.16"/><line class="cls-1" x1="98.51" y1="132.79" x2="98.51" y2="280.48"/><line class="cls-1" x1="88.67" y1="127.11" x2="88.67" y2="274.8"/><line class="cls-1" x1="78.83" y1="121.43" x2="78.83" y2="269.12"/><line class="cls-1" x1="68.99" y1="115.75" x2="68.99" y2="263.44"/><line class="cls-1" x1="59.16" y1="110.07" x2="59.16" y2="257.76"/><line class="cls-1" x1="49.32" y1="104.39" x2="49.32" y2="252.08"/><line class="cls-1" x1="39.48" y1="98.71" x2="39.48" y2="246.4"/><line class="cls-1" x1="29.64" y1="93.03" x2="29.64" y2="240.72"/><line class="cls-1" x1="19.8" y1="87.35" x2="19.8" y2="235.04"/><line class="cls-1" x1="9.96" y1="81.67" x2="9.96" y2="229.36"/><polygon class="cls-1" points="258.93 75.99 131.03 149.83 131.03 297.52 258.93 223.68 258.93 75.99"/><line class="cls-1" x1="258.93" y1="212.32" x2="131.03" y2="286.16"/><line class="cls-1" x1="258.93" y1="200.95" x2="131.03" y2="274.8"/><line class="cls-1" x1="258.93" y1="189.59" x2="131.03" y2="263.44"/><line class="cls-1" x1="258.93" y1="178.23" x2="131.03" y2="252.08"/><line class="cls-1" x1="258.93" y1="166.87" x2="131.03" y2="240.72"/><line class="cls-1" x1="258.93" y1="155.51" x2="131.03" y2="229.36"/><line class="cls-1" x1="258.93" y1="144.15" x2="131.03" y2="218"/><line class="cls-1" x1="258.93" y1="132.79" x2="131.03" y2="206.63"/><line class="cls-1" x1="258.93" y1="121.43" x2="131.03" y2="195.27"/><line class="cls-1" x1="258.93" y1="110.07" x2="131.03" y2="183.91"/><line class="cls-1" x1="258.93" y1="98.71" x2="131.03" y2="172.55"/><line class="cls-1" x1="258.93" y1="87.35" x2="131.03" y2="161.19"/><line class="cls-1" x1="140.86" y1="144.15" x2="140.86" y2="291.84"/><line class="cls-1" x1="150.7" y1="138.47" x2="150.7" y2="286.16"/><line class="cls-1" x1="160.54" y1="132.79" x2="160.54" y2="280.48"/><line class="cls-1" x1="170.38" y1="127.11" x2="170.38" y2="274.8"/><line class="cls-1" x1="180.22" y1="121.43" x2="180.22" y2="269.12"/><line class="cls-1" x1="190.06" y1="115.75" x2="190.06" y2="263.44"/><line class="cls-1" x1="199.9" y1="110.07" x2="199.9" y2="257.76"/><line class="cls-1" x1="209.73" y1="104.39" x2="209.73" y2="252.08"/><line class="cls-1" x1="219.57" y1="98.71" x2="219.57" y2="246.4"/><line class="cls-1" x1="229.41" y1="93.03" x2="229.41" y2="240.72"/><line class="cls-1" x1="239.25" y1="87.35" x2="239.25" y2="235.04"/><line class="cls-1" x1="249.09" y1="81.67" x2="249.09" y2="229.36"/><polygon class="cls-1" points="1.63 73.99 129.53 0.14 257.43 73.99 129.53 147.83 1.63 73.99"/><line class="cls-1" x1="119.69" y1="142.15" x2="247.59" y2="68.31"/><line class="cls-1" x1="109.85" y1="136.47" x2="237.75" y2="62.63"/><line class="cls-1" x1="100.01" y1="130.79" x2="227.91" y2="56.95"/><line class="cls-1" x1="90.17" y1="125.11" x2="218.07" y2="51.27"/><line class="cls-1" x1="80.33" y1="119.43" x2="208.23" y2="45.59"/><line class="cls-1" x1="70.49" y1="113.75" x2="198.4" y2="39.91"/><line class="cls-1" x1="60.66" y1="108.07" x2="188.56" y2="34.23"/><line class="cls-1" x1="50.82" y1="102.39" x2="178.72" y2="28.55"/><line class="cls-1" x1="40.98" y1="96.71" x2="168.88" y2="22.87"/><line class="cls-1" x1="31.14" y1="91.03" x2="159.04" y2="17.19"/><line class="cls-1" x1="21.3" y1="85.35" x2="149.2" y2="11.5"/><line class="cls-1" x1="11.46" y1="79.67" x2="139.36" y2="5.82"/><line class="cls-1" x1="119.69" y1="5.82" x2="247.59" y2="79.67"/><line class="cls-1" x1="109.85" y1="11.5" x2="237.75" y2="85.35"/><line class="cls-1" x1="100.01" y1="17.19" x2="227.91" y2="91.03"/><line class="cls-1" x1="90.17" y1="22.87" x2="218.07" y2="96.71"/><line class="cls-1" x1="80.33" y1="28.55" x2="208.23" y2="102.39"/><line class="cls-1" x1="70.49" y1="34.23" x2="198.4" y2="108.07"/><line class="cls-1" x1="60.66" y1="39.91" x2="188.56" y2="113.75"/><line class="cls-1" x1="50.82" y1="45.59" x2="178.72" y2="119.43"/><line class="cls-1" x1="40.98" y1="51.27" x2="168.88" y2="125.11"/><line class="cls-1" x1="31.14" y1="56.95" x2="159.04" y2="130.79"/><line class="cls-1" x1="21.3" y1="62.63" x2="149.2" y2="136.47"/><line class="cls-1" x1="11.46" y1="68.31" x2="139.36" y2="142.15"/></g></g></svg>