<svg xmlns="http://www.w3.org/2000/svg" width="1200" height="760" viewBox="0 0 1200 760" role="img" aria-labelledby="title desc">
  <title id="title">Nordvik rentals product preview</title>
  <desc id="desc">A premium rentals website mockup with property cards, booking UI, and responsive mobile preview.</desc>
  <defs>
    <linearGradient id="bg" x1="0" y1="0" x2="1" y2="1">
      <stop offset="0" stop-color="#ffffff"/>
      <stop offset="0.5" stop-color="#f4f7fa"/>
      <stop offset="1" stop-color="#eaf8ff"/>
    </linearGradient>
    <filter id="shadow" x="-20%" y="-20%" width="140%" height="150%">
      <feDropShadow dx="0" dy="24" stdDeviation="30" flood-color="#0d2b4e" flood-opacity="0.17"/>
    </filter>
  </defs>
  <rect width="1200" height="760" fill="url(#bg)"/>
  <circle cx="1020" cy="170" r="210" fill="#00bfff" opacity="0.1"/>
  <g filter="url(#shadow)">
    <rect x="94" y="96" width="772" height="520" rx="30" fill="#fff"/>
    <rect x="128" y="132" width="704" height="176" rx="24" fill="#0d2b4e"/>
    <text x="166" y="190" fill="#fff" font-family="Poppins, Arial, sans-serif" font-size="34" font-weight="900">Nordvik Rentals</text>
    <text x="166" y="226" fill="#dce7ef" font-family="Poppins, Arial, sans-serif" font-size="15" font-weight="600">Premium stays, clean booking flows, and trust-first UI.</text>
    <rect x="166" y="252" width="142" height="38" rx="15" fill="#00bfff"/>
    <text x="195" y="276" fill="#fff" font-family="Poppins, Arial, sans-serif" font-size="12" font-weight="900">Explore Homes</text>
    <rect x="128" y="342" width="206" height="214" rx="22" fill="#f4f7fa"/>
    <rect x="362" y="342" width="206" height="214" rx="22" fill="#f4f7fa"/>
    <rect x="596" y="342" width="206" height="214" rx="22" fill="#f4f7fa"/>
    <rect x="154" y="368" width="154" height="76" rx="18" fill="#d9f6ff"/>
    <rect x="388" y="368" width="154" height="76" rx="18" fill="#d9f6ff"/>
    <rect x="622" y="368" width="154" height="76" rx="18" fill="#d9f6ff"/>
    <text x="154" y="480" fill="#0d2b4e" font-family="Poppins, Arial, sans-serif" font-size="15" font-weight="900">Skyline Studio</text>
    <text x="388" y="480" fill="#0d2b4e" font-family="Poppins, Arial, sans-serif" font-size="15" font-weight="900">Lakeview Suite</text>
    <text x="622" y="480" fill="#0d2b4e" font-family="Poppins, Arial, sans-serif" font-size="15" font-weight="900">Urban Loft</text>
    <text x="154" y="512" fill="#00668a" font-family="Poppins, Arial, sans-serif" font-size="13" font-weight="900">$120 / night</text>
    <text x="388" y="512" fill="#00668a" font-family="Poppins, Arial, sans-serif" font-size="13" font-weight="900">$180 / night</text>
    <text x="622" y="512" fill="#00668a" font-family="Poppins, Arial, sans-serif" font-size="13" font-weight="900">$145 / night</text>
    <rect x="906" y="146" width="228" height="470" rx="34" fill="#0d2b4e"/>
    <rect x="928" y="180" width="184" height="402" rx="25" fill="#ffffff"/>
    <rect x="950" y="212" width="140" height="130" rx="22" fill="#e8f8ff"/>
    <text x="950" y="382" fill="#0d2b4e" font-family="Poppins, Arial, sans-serif" font-size="18" font-weight="900">Book a stay</text>
    <rect x="950" y="408" width="140" height="34" rx="12" fill="#f4f7fa"/>
    <rect x="950" y="456" width="140" height="34" rx="12" fill="#f4f7fa"/>
    <rect x="950" y="514" width="140" height="42" rx="15" fill="#00bfff"/>
    <text x="987" y="540" fill="#fff" font-family="Poppins, Arial, sans-serif" font-size="12" font-weight="900">Reserve</text>
  </g>
</svg>
