<svg xmlns="http://www.w3.org/2000/svg" width="1200" height="760" viewBox="0 0 1200 760" role="img" aria-labelledby="title desc">
  <title id="title">ShopVerse app product preview</title>
  <desc id="desc">A multi-role e-commerce operations app with customer, seller, admin, logistics, and reporting screens.</desc>
  <defs>
    <linearGradient id="bg" x1="0" y1="0" x2="1" y2="1">
      <stop offset="0" stop-color="#f4f7fa"/>
      <stop offset="0.55" stop-color="#ffffff"/>
      <stop offset="1" stop-color="#e9f9ff"/>
    </linearGradient>
    <filter id="shadow" x="-20%" y="-20%" width="140%" height="150%">
      <feDropShadow dx="0" dy="24" stdDeviation="30" flood-color="#0d2b4e" flood-opacity="0.17"/>
    </filter>
  </defs>
  <rect width="1200" height="760" fill="url(#bg)"/>
  <g filter="url(#shadow)">
    <rect x="88" y="92" width="1024" height="576" rx="34" fill="#fff"/>
    <rect x="126" y="132" width="948" height="496" rx="22" fill="#0d2b4e"/>
    <rect x="126" y="132" width="948" height="54" rx="22" fill="#123a62"/>
    <text x="166" y="167" fill="#fff" font-family="Poppins, Arial, sans-serif" font-size="23" font-weight="900">ShopVerse Operations Console</text>
    <rect x="860" y="145" width="158" height="28" rx="14" fill="#00bfff"/>
    <text x="889" y="164" fill="#fff" font-family="Poppins, Arial, sans-serif" font-size="11" font-weight="900">LIVE REPORTING</text>
    <rect x="166" y="222" width="200" height="352" rx="22" fill="#ffffff"/>
    <text x="196" y="263" fill="#0d2b4e" font-family="Poppins, Arial, sans-serif" font-size="18" font-weight="900">Role Center</text>
    <rect x="196" y="294" width="140" height="38" rx="13" fill="#00bfff"/>
    <text x="220" y="318" fill="#fff" font-family="Poppins, Arial, sans-serif" font-size="12" font-weight="900">Customer</text>
    <rect x="196" y="350" width="140" height="38" rx="13" fill="#f4f7fa"/>
    <text x="220" y="374" fill="#0d2b4e" font-family="Poppins, Arial, sans-serif" font-size="12" font-weight="900">Seller</text>
    <rect x="196" y="406" width="140" height="38" rx="13" fill="#f4f7fa"/>
    <text x="220" y="430" fill="#0d2b4e" font-family="Poppins, Arial, sans-serif" font-size="12" font-weight="900">Admin</text>
    <rect x="196" y="462" width="140" height="38" rx="13" fill="#f4f7fa"/>
    <text x="220" y="486" fill="#0d2b4e" font-family="Poppins, Arial, sans-serif" font-size="12" font-weight="900">Logistics</text>
    <rect x="398" y="222" width="392" height="164" rx="22" fill="#ffffff"/>
    <text x="430" y="262" fill="#0d2b4e" font-family="Poppins, Arial, sans-serif" font-size="19" font-weight="900">Order Management</text>
    <rect x="430" y="294" width="312" height="28" rx="10" fill="#f4f7fa"/>
    <rect x="430" y="338" width="254" height="28" rx="10" fill="#f4f7fa"/>
    <path d="M430 366 C496 330 556 372 624 338 C672 314 716 330 742 306" fill="none" stroke="#00bfff" stroke-width="7" stroke-linecap="round"/>
    <rect x="398" y="410" width="392" height="164" rx="22" fill="#ffffff"/>
    <text x="430" y="450" fill="#0d2b4e" font-family="Poppins, Arial, sans-serif" font-size="19" font-weight="900">Inventory Health</text>
    <rect x="430" y="486" width="66" height="54" rx="15" fill="#e8f8ff"/>
    <rect x="518" y="486" width="66" height="54" rx="15" fill="#e8f8ff"/>
    <rect x="606" y="486" width="66" height="54" rx="15" fill="#e8f8ff"/>
    <text x="450" y="519" fill="#00668a" font-family="Poppins, Arial, sans-serif" font-size="17" font-weight="900">42</text>
    <text x="538" y="519" fill="#00668a" font-family="Poppins, Arial, sans-serif" font-size="17" font-weight="900">18</text>
    <text x="626" y="519" fill="#00668a" font-family="Poppins, Arial, sans-serif" font-size="17" font-weight="900">07</text>
    <rect x="820" y="222" width="214" height="352" rx="22" fill="#ffffff"/>
    <text x="852" y="263" fill="#0d2b4e" font-family="Poppins, Arial, sans-serif" font-size="19" font-weight="900">Sales Report</text>
    <rect x="852" y="302" width="38" height="196" rx="14" fill="#00bfff"/>
    <rect x="912" y="356" width="38" height="142" rx="14" fill="#5ee6a8"/>
    <rect x="972" y="274" width="38" height="224" rx="14" fill="#f7b955"/>
    <text x="852" y="540" fill="#0d2b4e" font-family="Poppins, Arial, sans-serif" font-size="13" font-weight="800">Revenue by category</text>
  </g>
</svg>
