<svg xmlns="http://www.w3.org/2000/svg" width="1200" height="760" viewBox="0 0 1200 760" role="img" aria-labelledby="title desc">
  <title id="title">Zarooriyaat e-commerce product preview</title>
  <desc id="desc">An e-commerce storefront with product catalog, cart, checkout, and admin metrics.</desc>
  <defs>
    <linearGradient id="bg" x1="0" y1="0" x2="1" y2="1">
      <stop offset="0" stop-color="#ffffff"/>
      <stop offset="0.55" stop-color="#e9f9ff"/>
      <stop offset="1" stop-color="#f4f7fa"/>
    </linearGradient>
    <filter id="shadow" x="-20%" y="-20%" width="140%" height="150%">
      <feDropShadow dx="0" dy="24" stdDeviation="30" flood-color="#0d2b4e" flood-opacity="0.17"/>
    </filter>
  </defs>
  <rect width="1200" height="760" fill="url(#bg)"/>
  <circle cx="260" cy="120" r="160" fill="#00bfff" opacity="0.1"/>
  <circle cx="980" cy="660" r="220" fill="#5ee6a8" opacity="0.1"/>
  <g filter="url(#shadow)">
    <rect x="84" y="82" width="1032" height="596" rx="30" fill="#fff"/>
    <rect x="84" y="82" width="1032" height="76" rx="30" fill="#0d2b4e"/>
    <rect x="84" y="122" width="1032" height="36" fill="#0d2b4e"/>
    <text x="126" y="130" fill="#fff" font-family="Poppins, Arial, sans-serif" font-size="27" font-weight="900">Zarooriyaat</text>
    <rect x="358" y="104" width="360" height="34" rx="17" fill="#ffffff" opacity="0.16"/>
    <text x="390" y="126" fill="#ffffff" opacity="0.76" font-family="Poppins, Arial, sans-serif" font-size="13" font-weight="700">Search essentials, groceries, and daily needs</text>
    <rect x="922" y="99" width="132" height="44" rx="18" fill="#00bfff"/>
    <text x="950" y="126" fill="#fff" font-family="Poppins, Arial, sans-serif" font-size="14" font-weight="900">Cart 03</text>
    <rect x="126" y="190" width="260" height="432" rx="24" fill="#f4f7fa" stroke="#dce7ef"/>
    <text x="156" y="234" fill="#0d2b4e" font-family="Poppins, Arial, sans-serif" font-size="21" font-weight="900">Categories</text>
    <rect x="156" y="270" width="180" height="42" rx="14" fill="#00bfff"/>
    <text x="180" y="297" fill="#fff" font-family="Poppins, Arial, sans-serif" font-size="13" font-weight="900">Fresh Picks</text>
    <rect x="156" y="330" width="180" height="42" rx="14" fill="#fff" stroke="#dce7ef"/>
    <text x="180" y="357" fill="#0d2b4e" font-family="Poppins, Arial, sans-serif" font-size="13" font-weight="800">Home Essentials</text>
    <rect x="156" y="390" width="180" height="42" rx="14" fill="#fff" stroke="#dce7ef"/>
    <text x="180" y="417" fill="#0d2b4e" font-family="Poppins, Arial, sans-serif" font-size="13" font-weight="800">Personal Care</text>
    <rect x="156" y="508" width="180" height="72" rx="18" fill="#e8f8ff" stroke="#a8e9ff"/>
    <text x="178" y="538" fill="#00668a" font-family="Poppins, Arial, sans-serif" font-size="12" font-weight="900">Admin-ready</text>
    <text x="178" y="562" fill="#0d2b4e" font-family="Poppins, Arial, sans-serif" font-size="14" font-weight="800">Inventory + orders</text>
    <rect x="420" y="190" width="420" height="432" rx="24" fill="#fff" stroke="#dce7ef"/>
    <text x="452" y="234" fill="#0d2b4e" font-family="Poppins, Arial, sans-serif" font-size="23" font-weight="900">Product Catalog</text>
    <g>
      <rect x="452" y="270" width="152" height="142" rx="22" fill="#f4f7fa"/>
      <rect x="634" y="270" width="152" height="142" rx="22" fill="#f4f7fa"/>
      <rect x="452" y="446" width="152" height="142" rx="22" fill="#f4f7fa"/>
      <rect x="634" y="446" width="152" height="142" rx="22" fill="#f4f7fa"/>
      <circle cx="528" cy="325" r="33" fill="#00bfff" opacity="0.26"/>
      <circle cx="710" cy="325" r="33" fill="#5ee6a8" opacity="0.28"/>
      <circle cx="528" cy="501" r="33" fill="#f7b955" opacity="0.35"/>
      <circle cx="710" cy="501" r="33" fill="#0d2b4e" opacity="0.18"/>
      <text x="480" y="385" fill="#0d2b4e" font-family="Poppins, Arial, sans-serif" font-size="13" font-weight="900">Daily Bundle</text>
      <text x="664" y="385" fill="#0d2b4e" font-family="Poppins, Arial, sans-serif" font-size="13" font-weight="900">Care Kit</text>
      <text x="480" y="561" fill="#0d2b4e" font-family="Poppins, Arial, sans-serif" font-size="13" font-weight="900">Grocery Pack</text>
      <text x="664" y="561" fill="#0d2b4e" font-family="Poppins, Arial, sans-serif" font-size="13" font-weight="900">Home Box</text>
    </g>
    <rect x="872" y="190" width="202" height="432" rx="24" fill="#0d2b4e"/>
    <text x="904" y="235" fill="#fff" font-family="Poppins, Arial, sans-serif" font-size="21" font-weight="900">Checkout</text>
    <rect x="904" y="272" width="138" height="48" rx="15" fill="#ffffff" opacity="0.12"/>
    <rect x="904" y="340" width="138" height="48" rx="15" fill="#ffffff" opacity="0.12"/>
    <rect x="904" y="408" width="138" height="48" rx="15" fill="#ffffff" opacity="0.12"/>
    <text x="922" y="301" fill="#fff" font-family="Poppins, Arial, sans-serif" font-size="13" font-weight="800">Cart review</text>
    <text x="922" y="369" fill="#fff" font-family="Poppins, Arial, sans-serif" font-size="13" font-weight="800">Shipping</text>
    <text x="922" y="437" fill="#fff" font-family="Poppins, Arial, sans-serif" font-size="13" font-weight="800">Order placed</text>
    <rect x="904" y="530" width="138" height="46" rx="16" fill="#00bfff"/>
    <text x="934" y="558" fill="#fff" font-family="Poppins, Arial, sans-serif" font-size="13" font-weight="900">Place Order</text>
  </g>
</svg>
