<svg xmlns="http://www.w3.org/2000/svg" xmlns:xlink="http://www.w3.org/1999/xlink" viewBox="0 0 162.62 186.14"><defs><style>.cls-1{fill:url(#linear-gradient);}.cls-2{fill:url(#linear-gradient-2);}.cls-3{fill:url(#linear-gradient-3);}.cls-4{fill:url(#linear-gradient-4);}.cls-5{fill:url(#linear-gradient-5);}</style><linearGradient id="linear-gradient" x1="222.38" y1="17.22" x2="-30.07" y2="156.76" gradientUnits="userSpaceOnUse"><stop offset="0.21" stop-color="#f1f2f2"/><stop offset="0.52" stop-color="#e6e7e8"/><stop offset="0.7" stop-color="#d1d3d4"/><stop offset="0.89" stop-color="#bcbec0"/></linearGradient><linearGradient id="linear-gradient-2" x1="-70.44" y1="137.61" x2="245.16" y2="106.66" gradientUnits="userSpaceOnUse"><stop offset="0" stop-color="#939598"/><stop offset="0.11" stop-color="#939598"/><stop offset="0.33" stop-color="#bcbec0"/><stop offset="0.72" stop-color="#e6e7e8"/><stop offset="0.89" stop-color="#eaebeb"/><stop offset="1" stop-color="#f1f2f2"/></linearGradient><linearGradient id="linear-gradient-3" x1="-41.42" y1="104.02" x2="158.46" y2="7.96" gradientUnits="userSpaceOnUse"><stop offset="0" stop-color="#bcbec0"/><stop offset="0.11" stop-color="#d1d3d4"/><stop offset="0.33" stop-color="#d1d3d4"/><stop offset="0.72" stop-color="#e6e7e8"/><stop offset="0.89" stop-color="#eaebeb"/><stop offset="1" stop-color="#f1f2f2"/></linearGradient><linearGradient id="linear-gradient-4" x1="-32.58" y1="78.55" x2="125.25" y2="30.49" gradientUnits="userSpaceOnUse"><stop offset="0" stop-color="#939598"/><stop offset="0.11" stop-color="#939598"/><stop offset="0.33" stop-color="#939598"/><stop offset="0.72" stop-color="#e6e7e8"/><stop offset="0.89" stop-color="#eaebeb"/><stop offset="1" stop-color="#f1f2f2"/></linearGradient><linearGradient id="linear-gradient-5" x1="-31.81" y1="81.08" x2="126.02" y2="33.01" xlink:href="#linear-gradient-4"/></defs><g id="Layer_2" data-name="Layer 2"><g id="Layer_1-2" data-name="Layer 1"><polygon class="cls-1" points="66.02 89.14 66.02 89.13 60.01 85.67 54.01 82.2 48.01 78.74 42.01 75.28 42.01 75.27 36 71.81 30.01 68.35 24.01 64.88 18 61.42 12.01 57.96 6 54.49 0 51.03 0 71.81 6 75.27 12.01 78.74 18 82.2 24.01 85.67 30.01 89.13 36 92.59 42.01 96.06 48.01 99.52 54.01 102.99 60.01 106.45 60.01 120.31 54.01 116.84 48.01 113.38 42.01 109.92 36 106.45 30.01 102.99 24.01 99.52 18 96.06 12.01 92.6 6 89.13 0 85.67 0 141.1 6 144.56 12.01 148.02 18 151.48 18 116.84 24.01 120.31 30.01 123.77 36 134.15 36 134.16 36.02 134.18 42.01 144.55 42.01 144.56 42.02 144.56 48.01 154.96 54.01 165.34 60.01 175.74 66.02 179.2 72.01 182.66 78.01 186.14 78.01 172.28 72.01 161.88 72.01 161.87 66.02 151.5 60.01 141.09 66.02 144.56 72.01 148.02 78.01 151.48 78.01 96.06 72.01 92.6 66.02 89.14"/><polygon class="cls-2" points="114.61 99.52 120.61 96.06 126.61 92.59 132.62 89.13 138.61 85.67 144.61 82.2 150.62 78.73 156.61 75.27 162.62 71.81 162.62 51.03 156.61 54.49 150.62 57.95 144.61 61.42 138.61 64.88 132.62 68.35 126.61 71.81 120.61 75.27 120.61 75.28 114.61 78.74 108.61 82.2 102.61 85.67 96.61 89.13 90.61 92.6 84.6 96.06 84.6 186.14 90.61 182.66 96.61 179.2 102.61 175.74 108.61 172.28 114.61 168.8 120.61 165.34 126.61 161.88 132.62 158.42 138.61 154.96 144.61 151.48 150.62 148.02 156.61 144.56 162.62 141.1 162.62 120.31 156.61 123.77 150.62 127.23 144.61 130.7 138.61 134.16 132.62 137.63 126.61 141.09 120.61 144.56 114.61 148.02 102.61 154.94 102.61 106.45 114.61 99.52"/><path class="cls-3" d="M93.31,83.14l6-3.46,6-3.46,6-3.47,6-3.47,6-3.46,6-3.46,6-3.46,6-3.48,6-3.46,6-3.46,6-3.46-6-3.46-6-3.48h0l-12-6.92-6-3.46-6-3.48-6-3.46-6-3.46-6-3.46-6-3.46-6-3.48-6-3.46L81.31,0l-6,3.46-6,3.46h0l-6,3.48-6,3.46-6,3.46-6,3.46-6,3.46h0l-6,3.48-6,3.46-6,3.46-6,3.46-6,3.48L3.3,45l12,6.92,6,3.46,6,3.48,6,3.46,6,3.46,6,3.46,6,3.47,6,3.47,6,3.46,6,3.46,6,3.47,6,3.46,6-3.46Zm-24-13.86-6-3.46-6-3.46-6-3.48-6-3.46-6-3.46V45h0V38.1l6-3.46,6-3.46,6-3.48,6-3.46,6-3.46h24l6,3.46,6,3.48h0l6,3.46,12,6.92V52l-6,3.46-6,3.46h0l-6,3.46-6,3.48-6,3.46Z"/><polygon class="cls-4" points="92.36 38.87 92.36 42.31 92.35 42.33 92.36 42.34 92.36 49.26 98.36 52.73 104.36 49.26 104.36 35.41 98.36 31.94 74.36 31.94 68.37 35.41 74.36 38.87 92.36 38.87"/><polygon class="cls-5" points="88.28 51.62 70.27 51.62 70.27 48.16 70.28 41.23 64.28 37.77 58.27 41.24 58.27 55.09 64.26 58.55 76.26 58.55 76.27 58.56 88.27 58.56 94.29 55.09 88.28 51.62"/></g></g></svg>