<svg xmlns="http://www.w3.org/2000/svg" xmlns:xlink="http://www.w3.org/1999/xlink" viewBox="0 0 500 500"><defs><style>.cls-1{fill:url(#linear-gradient);}.cls-2{fill:url(#linear-gradient-2);}.cls-3{fill:url(#linear-gradient-3);}.cls-4{fill:url(#linear-gradient-4);}.cls-5{fill:url(#linear-gradient-5);}.cls-6{fill:url(#linear-gradient-6);}</style><linearGradient id="linear-gradient" x1="817.69" y1="-349.78" x2="-106.85" y2="627.03" gradientUnits="userSpaceOnUse"><stop offset="0" stop-color="#012840"/><stop offset="1" stop-color="#0d0d0d"/></linearGradient><linearGradient id="linear-gradient-2" x1="391.08" y1="174.15" x2="138.62" y2="313.69" gradientUnits="userSpaceOnUse"><stop offset="0.21" stop-color="#41d2f2"/><stop offset="0.52" stop-color="#0367a6"/><stop offset="0.7" stop-color="#024873"/><stop offset="0.89" stop-color="#012840"/></linearGradient><linearGradient id="linear-gradient-3" x1="98.26" y1="294.54" x2="413.85" y2="263.59" gradientUnits="userSpaceOnUse"><stop offset="0" stop-color="#012840"/><stop offset="0.11" stop-color="#024873"/><stop offset="0.33" stop-color="#0367a6"/><stop offset="0.72" stop-color="#41d2f2"/><stop offset="0.99" stop-color="#41d2f2"/><stop offset="1" stop-color="#41d2f2"/></linearGradient><linearGradient id="linear-gradient-4" x1="127.27" y1="260.95" x2="327.16" y2="164.89" xlink:href="#linear-gradient-3"/><linearGradient id="linear-gradient-5" x1="219.53" y1="209.5" x2="268.69" y2="195.34" xlink:href="#linear-gradient-3"/><linearGradient id="linear-gradient-6" x1="209.69" y1="215.26" x2="258.89" y2="201.08" xlink:href="#linear-gradient-3"/></defs><g id="Layer_2" data-name="Layer 2"><g id="Layer_1-2" data-name="Layer 1"><rect class="cls-1" width="500" height="500"/><polygon class="cls-2" points="234.71 246.07 234.71 246.06 228.7 242.6 222.7 239.14 216.71 235.67 210.7 232.21 210.7 232.2 204.7 228.74 198.7 225.28 192.7 221.82 186.69 218.35 180.7 214.89 174.7 211.42 168.69 207.96 168.69 228.74 174.7 232.2 180.7 235.67 186.69 239.14 192.7 242.6 198.7 246.06 204.7 249.52 210.7 252.99 216.71 256.46 222.7 259.92 228.7 263.38 228.7 277.24 222.7 273.78 216.71 270.31 210.7 266.85 204.7 263.38 198.7 259.92 192.7 256.46 186.69 252.99 180.7 249.53 174.7 246.06 168.69 242.6 168.69 298.03 174.7 301.49 180.7 304.95 186.69 308.42 186.69 273.78 192.7 277.24 198.7 280.7 204.7 291.08 204.7 291.1 204.71 291.11 210.7 301.48 210.7 301.49 210.71 301.49 216.71 311.89 222.7 322.27 228.7 332.67 234.71 336.13 240.7 339.59 246.7 343.07 246.7 329.21 240.7 318.81 240.7 318.8 234.71 308.43 228.7 298.02 234.71 301.49 240.7 304.95 246.7 308.42 246.7 252.99 240.7 249.53 234.71 246.07"/><polygon class="cls-3" points="283.31 256.46 289.3 252.99 295.3 249.52 301.31 246.06 307.3 242.6 313.31 239.14 319.31 235.66 325.3 232.2 331.31 228.74 331.31 207.96 325.3 211.42 319.31 214.88 313.31 218.35 307.3 221.82 301.31 225.28 295.3 228.74 289.3 232.2 289.3 232.21 283.31 235.67 277.3 239.14 271.3 242.6 265.31 246.06 259.3 249.53 253.3 252.99 253.3 343.07 259.3 339.59 265.31 336.13 271.3 332.67 277.3 329.21 283.31 325.74 289.3 322.27 295.3 318.81 301.31 315.35 307.3 311.89 313.31 308.42 319.31 304.95 325.3 301.49 331.31 298.03 331.31 277.24 325.3 280.7 319.31 284.16 313.31 287.63 307.3 291.1 301.31 294.56 295.3 298.02 289.3 301.49 283.31 304.95 271.3 311.88 271.3 263.38 283.31 256.46"/><path class="cls-4" d="M262,240.07l6-3.46,6-3.46,6-3.46,6-3.48,6-3.46,6-3.46,6-3.46,6-3.48,6-3.46,6-3.46,6-3.46-6-3.46L316,195h0l-12-6.92-6-3.46-6-3.48-6-3.46-6-3.46-6-3.46-6-3.46-6-3.48-6-3.46-6-3.46-6,3.46-6,3.46h0l-6,3.48-6,3.46-6,3.46-6,3.46-6,3.46h0l-6,3.48-6,3.46-6,3.46L184,195l-6,3.48L172,202l12,6.92,6,3.46,6,3.48,6,3.46,6,3.46,6,3.46,6,3.48,6,3.46,6,3.46,6,3.46,6,3.47,6,3.47,6-3.47Zm-24-13.86-6-3.46-6-3.46-6-3.48-6-3.46-6-3.46V202h0V195l6-3.46,6-3.46,6-3.47,6-3.47,6-3.46h24l6,3.46,6,3.48h0l6,3.46L292,195l0,6.94v6.92l-6,3.46-6,3.46h0l-6,3.47-6,3.47-6,3.46Z"/><polygon class="cls-5" points="261.05 195.8 261.05 199.25 261.04 199.26 261.05 199.27 261.05 206.19 267.06 209.66 273.05 206.19 273.05 192.34 267.06 188.88 243.05 188.88 237.06 192.34 243.05 195.8 261.05 195.8"/><polygon class="cls-6" points="256.98 208.56 238.96 208.56 238.96 205.09 238.97 198.16 232.97 194.7 226.96 198.17 226.96 212.02 232.96 215.48 244.95 215.48 244.97 215.49 256.96 215.49 262.98 212.02 256.98 208.56"/></g></g></svg>