<svg xmlns="http://www.w3.org/2000/svg" xmlns:xlink="http://www.w3.org/1999/xlink" viewBox="0 0 461.09 250.51"><defs><style>.cls-1{fill:url(#linear-gradient);}.cls-2{fill:url(#linear-gradient-2);}.cls-3{fill:url(#linear-gradient-3);}.cls-4{fill:url(#linear-gradient-4);}.cls-5{fill:url(#linear-gradient-5);}.cls-6{fill:#41d2f2;}</style><linearGradient id="linear-gradient" x1="363.86" y1="16.17" x2="126.81" y2="147.2" gradientUnits="userSpaceOnUse"><stop offset="0.21" stop-color="#41d2f2"/><stop offset="0.52" stop-color="#0367a6"/><stop offset="0.7" stop-color="#024873"/><stop offset="0.89" stop-color="#012840"/></linearGradient><linearGradient id="linear-gradient-2" x1="88.9" y1="129.22" x2="385.24" y2="100.15" gradientUnits="userSpaceOnUse"><stop offset="0" stop-color="#012840"/><stop offset="0.11" stop-color="#024873"/><stop offset="0.33" stop-color="#0367a6"/><stop offset="0.72" stop-color="#41d2f2"/><stop offset="0.99" stop-color="#41d2f2"/><stop offset="1" stop-color="#41d2f2"/></linearGradient><linearGradient id="linear-gradient-3" x1="116.15" y1="97.68" x2="303.84" y2="7.47" xlink:href="#linear-gradient-2"/><linearGradient id="linear-gradient-4" x1="202.78" y1="49.36" x2="248.94" y2="36.06" xlink:href="#linear-gradient-2"/><linearGradient id="linear-gradient-5" x1="193.55" y1="54.77" x2="239.74" y2="41.46" xlink:href="#linear-gradient-2"/></defs><g id="Layer_2" data-name="Layer 2"><g id="Layer_1-2" data-name="Layer 1"><polygon class="cls-1" points="217.03 83.7 217.03 83.69 211.39 80.44 205.75 77.19 200.13 73.94 194.49 70.69 194.49 70.68 188.85 67.43 183.22 64.18 177.59 60.93 171.95 57.68 166.32 54.43 160.68 51.16 155.04 47.91 155.04 67.43 160.68 70.68 166.32 73.94 171.95 77.19 177.59 80.44 183.22 83.69 188.85 86.94 194.49 90.2 200.13 93.45 205.75 96.7 211.39 99.95 211.39 112.97 205.75 109.72 200.13 106.47 194.49 103.22 188.85 99.95 183.22 96.7 177.59 93.45 171.95 90.2 166.32 86.95 160.68 83.69 155.04 80.44 155.04 132.49 160.68 135.74 166.32 138.99 171.95 142.24 171.95 109.72 177.59 112.97 183.22 116.22 188.85 125.97 188.85 125.98 188.86 125.99 194.49 135.73 194.49 135.74 194.5 135.74 200.13 145.51 205.75 155.26 211.39 165.02 217.03 168.27 222.66 171.52 228.3 174.78 228.3 161.77 222.66 152.01 222.66 151.99 217.03 142.25 211.39 132.48 217.03 135.74 222.66 138.99 228.3 142.24 228.3 90.2 222.66 86.95 217.03 83.7"/><polygon class="cls-2" points="262.67 93.45 268.29 90.2 273.93 86.94 279.57 83.69 285.2 80.44 290.84 77.19 296.47 73.93 302.1 70.68 307.74 67.43 307.74 47.91 302.1 51.16 296.47 54.41 290.84 57.68 285.2 60.93 279.57 64.18 273.93 67.43 268.29 70.68 268.29 70.69 262.67 73.94 257.03 77.19 251.39 80.44 245.76 83.69 240.13 86.95 234.49 90.2 234.49 174.78 240.13 171.52 245.76 168.27 251.39 165.02 257.03 161.77 262.67 158.51 268.29 155.26 273.93 152.01 279.57 148.76 285.2 145.51 290.84 142.24 296.47 138.99 302.1 135.74 307.74 132.49 307.74 112.97 302.1 116.22 296.47 119.47 290.84 122.73 285.2 125.98 279.57 129.23 273.93 132.48 268.29 135.74 262.67 138.99 251.39 145.49 251.39 99.95 262.67 93.45"/><path class="cls-3" d="M242.66,78.07l5.64-3.25,5.63-3.25,5.64-3.25,5.63-3.27,5.63-3.25,5.64-3.25,5.64-3.25L287.73,52l5.64-3.25L299,45.54l5.64-3.25L299,39l-5.63-3.26h0l-11.25-6.5L276.47,26l-5.64-3.27-5.63-3.25-5.63-3.25L253.93,13,248.3,9.76,242.66,6.5,237,3.25,231.4,0l-5.64,3.25L220.13,6.5h0l-5.63,3.26L208.86,13l-5.64,3.25-5.63,3.25L192,22.76h0L186.31,26l-5.62,3.25-5.64,3.25-5.63,3.25L163.78,39l-5.64,3.25,11.28,6.5L175.05,52l5.64,3.26,5.62,3.25L192,61.8l5.64,3.25,5.63,3.27,5.64,3.25,5.63,3.25,5.63,3.25,5.64,3.26,5.64,3.25L237,81.33Zm-22.53-13-5.64-3.25-5.63-3.25-5.63-3.26L197.59,52,192,48.79v-6.5h0V35.78l5.63-3.25,5.65-3.25L208.86,26l5.62-3.25,5.64-3.25h22.54l5.64,3.25L253.93,26h0l5.63,3.25,11.27,6.5v13L265.19,52l-5.62,3.25h0l-5.62,3.25-5.64,3.26-5.64,3.25Z"/><polygon class="cls-4" points="241.77 36.49 241.77 39.73 241.76 39.74 241.77 39.76 241.77 46.26 247.41 49.51 253.03 46.26 253.03 33.24 247.41 30 224.87 30 219.24 33.24 224.87 36.49 241.77 36.49"/><polygon class="cls-5" points="237.94 48.48 221.03 48.48 221.03 45.23 221.04 38.71 215.4 35.46 209.76 38.72 209.76 51.73 215.39 54.98 226.65 54.98 226.66 54.99 237.93 54.99 243.58 51.73 237.94 48.48"/><path class="cls-6" d="M363.19,225.05l-17.47-12.76a11.47,11.47,0,0,0-2.5-1.38h0c0,6.61,3.62,13,10.09,17.69l2.51,1.84a.3.3,0,0,1,.14.25.34.34,0,0,1-.14.27l-2.49,1.82c-6.48,4.74-10.11,11.09-10.11,17.71a12.3,12.3,0,0,0,2.5-1.36l17.47-12.78C367.46,233.23,367.46,228.18,363.19,225.05Z"/><path class="cls-6" d="M312.81,225.05c-4.25,3.13-4.25,8.18,0,11.31l17.47,12.78a11.13,11.13,0,0,0,2.52,1.37c0-6.62-3.63-13-10.12-17.7L320.17,231a.37.37,0,0,1-.14-.27.32.32,0,0,1,.14-.25l2.53-1.85c6.48-4.73,10.1-11.08,10.1-17.69h0a11.6,11.6,0,0,0-2.52,1.39Z"/><path class="cls-6" d="M31.22,234c.24.29.65.84,1.24,1.66l2.08,2.83L37,241.84c.85,1.17,1.65,2.28,2.38,3.32s1.32,1.92,1.78,2.64a4.18,4.18,0,0,1,.68,1.36,1.45,1.45,0,0,1-.3.92,1.27,1.27,0,0,1-1.06.38H34a2.39,2.39,0,0,1-1.13-.22,2.14,2.14,0,0,1-.77-.74L21.31,234.14H8.78v14.64A1.87,1.87,0,0,1,8.4,250a1.53,1.53,0,0,1-1.28.5H1.72a1.6,1.6,0,0,1-1.3-.5A1.8,1.8,0,0,1,0,248.78V228.66a1.78,1.78,0,0,1,.39-1.15A1.61,1.61,0,0,1,1.72,227H27.54a5.33,5.33,0,0,0,2.16-.36,2.81,2.81,0,0,0,1.22-1,3.65,3.65,0,0,0,.56-1.44,10.05,10.05,0,0,0,0-3.46,3.65,3.65,0,0,0-.56-1.44,2.74,2.74,0,0,0-1.22-1,5.33,5.33,0,0,0-2.16-.36H1.72a1.61,1.61,0,0,1-1.33-.48A1.79,1.79,0,0,1,0,216.37v-3.79a1.83,1.83,0,0,1,.39-1.17,1.56,1.56,0,0,1,1.33-.51H29.08a14.79,14.79,0,0,1,5.58.91,8.57,8.57,0,0,1,3.47,2.5,9.49,9.49,0,0,1,1.81,3.7,18.16,18.16,0,0,1,.54,4.51,20.14,20.14,0,0,1-.39,4,9.67,9.67,0,0,1-1.42,3.5,8.74,8.74,0,0,1-2.82,2.64A10.87,10.87,0,0,1,31.22,234Z"/><path class="cls-6" d="M89.5,210.9a1.53,1.53,0,0,1,1.27.48,1.78,1.78,0,0,1,.39,1.15v22.9a32.62,32.62,0,0,1-.53,6.08,10.9,10.9,0,0,1-2.11,4.75,10.15,10.15,0,0,1-4.45,3.1,21.68,21.68,0,0,1-7.57,1.1H63.15a21.68,21.68,0,0,1-7.57-1.1,10.15,10.15,0,0,1-4.45-3.1A10.9,10.9,0,0,1,49,241.51a32.62,32.62,0,0,1-.53-6.08v-22.9a1.83,1.83,0,0,1,.38-1.15,1.64,1.64,0,0,1,1.34-.48h5.4a1.56,1.56,0,0,1,1.28.48,1.83,1.83,0,0,1,.38,1.15V236.2q0,1.49.12,2.79a5.41,5.41,0,0,0,.71,2.28,3.92,3.92,0,0,0,1.84,1.53,8.83,8.83,0,0,0,3.5.56H76.26a8.89,8.89,0,0,0,3.51-.56,3.76,3.76,0,0,0,1.81-1.51,5.5,5.5,0,0,0,.68-2.28c.08-.88.12-1.82.12-2.81V212.53a1.77,1.77,0,0,1,.38-1.15A1.55,1.55,0,0,1,84,210.9Z"/><path class="cls-6" d="M140.66,220.45v2.6a12,12,0,0,1-.27,2.54,9.54,9.54,0,0,1-.86,2.38,7.19,7.19,0,0,1-1.84,2.14,7.07,7.07,0,0,1,2.58,3.26,11.37,11.37,0,0,1,.68,3.89q0,2.2-.09,4.53a11.22,11.22,0,0,1-1,4.25,7.2,7.2,0,0,1-2.82,3.17,10.51,10.51,0,0,1-5.63,1.25H104.75a6.57,6.57,0,0,1-1.75-.26,6.28,6.28,0,0,1-1.66-.75,4.86,4.86,0,0,1-1.25-1.13,2.21,2.21,0,0,1-.5-1.41V214.17a2.69,2.69,0,0,1,1.39-2.38,6,6,0,0,1,3.3-.89h26.29a14.21,14.21,0,0,1,4.83.7,7.61,7.61,0,0,1,3.09,1.94,7.34,7.34,0,0,1,1.66,3A14,14,0,0,1,140.66,220.45Zm-32.29,22.91H129a3.53,3.53,0,0,0,2.59-.7,3.34,3.34,0,0,0,.62-2.23v-3.27a2.85,2.85,0,0,0-.89-2.4,5,5,0,0,0-3-.67H116.86a2.13,2.13,0,0,1-1.4-.46,1.4,1.4,0,0,1-.56-1.12v-3.94a1.42,1.42,0,0,1,.56-1.13,2.18,2.18,0,0,1,1.4-.46h11.51a5.74,5.74,0,0,0,2.88-.55,2.4,2.4,0,0,0,.92-2.23v-3.31A2.53,2.53,0,0,0,129,218H108.37Z"/><path class="cls-6" d="M180.66,234c.23.29.65.84,1.24,1.66l2.08,2.83,2.46,3.36c.85,1.17,1.65,2.28,2.38,3.32s1.32,1.92,1.78,2.64a4.18,4.18,0,0,1,.68,1.36,1.45,1.45,0,0,1-.3.92,1.27,1.27,0,0,1-1.06.38h-6.53a2.39,2.39,0,0,1-1.13-.22,2.14,2.14,0,0,1-.77-.74l-10.74-15.36H158.22v14.64a1.94,1.94,0,0,1-.38,1.18,1.53,1.53,0,0,1-1.28.5h-5.4a1.6,1.6,0,0,1-1.3-.5,1.8,1.8,0,0,1-.42-1.18V228.66a1.78,1.78,0,0,1,.39-1.15,1.61,1.61,0,0,1,1.33-.48H177a5.33,5.33,0,0,0,2.16-.36,2.81,2.81,0,0,0,1.22-1,3.65,3.65,0,0,0,.56-1.44,10.05,10.05,0,0,0,0-3.46,3.65,3.65,0,0,0-.56-1.44,2.74,2.74,0,0,0-1.22-1A5.33,5.33,0,0,0,177,218H151.16a1.61,1.61,0,0,1-1.33-.48,1.79,1.79,0,0,1-.39-1.16v-3.79a1.83,1.83,0,0,1,.39-1.17,1.56,1.56,0,0,1,1.33-.51h27.36a14.79,14.79,0,0,1,5.58.91,8.57,8.57,0,0,1,3.47,2.5,9.49,9.49,0,0,1,1.81,3.7,18.16,18.16,0,0,1,.54,4.51,20.14,20.14,0,0,1-.39,4,9.67,9.67,0,0,1-1.42,3.5,8.74,8.74,0,0,1-2.82,2.64A10.87,10.87,0,0,1,180.66,234Z"/><path class="cls-6" d="M205.64,210.9a2.77,2.77,0,0,1,1,.29c.44.19.65.66.65,1.39v36.25c0,.73-.21,1.2-.65,1.39a2.77,2.77,0,0,1-1,.29h-5.46a2.88,2.88,0,0,1-1-.29c-.43-.19-.65-.66-.65-1.39V212.58c0-.73.22-1.2.65-1.39a2.88,2.88,0,0,1,1-.29Z"/><path class="cls-6" d="M257.81,248.35a1.4,1.4,0,0,1,.42.86c0,.83-.46,1.25-1.37,1.25H250a2.48,2.48,0,0,1-1.28-.22,3.6,3.6,0,0,1-.8-.79l-12-13.73-12,13.78a3.37,3.37,0,0,1-.86.74,2.5,2.5,0,0,1-1.21.22h-6.53c-.87,0-1.31-.38-1.31-1.15a1.47,1.47,0,0,1,.42-1l16.32-18.68L216,213a1.43,1.43,0,0,1-.36-1c0-.76.44-1.15,1.31-1.15h6.88a2.74,2.74,0,0,1,1.22.22,2.51,2.51,0,0,1,.86.74l10.51,12.29,11.15-12.29a3.74,3.74,0,0,1,.86-.74,2.55,2.55,0,0,1,1.22-.22h6.53c.91,0,1.36.39,1.36,1.15a1.25,1.25,0,0,1-.41,1l-15.2,17Z"/><path class="cls-6" d="M300.54,210.9a1.51,1.51,0,0,1,1.28.51,1.89,1.89,0,0,1,.38,1.17q0,.43.09,1.35a10.82,10.82,0,0,1,0,1.8,3.82,3.82,0,0,1-.44,1.58,1.42,1.42,0,0,1-1.34.7H279.23a9.31,9.31,0,0,0-3.5.52,3.91,3.91,0,0,0-1.84,1.49,5.19,5.19,0,0,0-.71,2.24c-.08.84-.12,1.78-.12,2.8v11.19c0,1,0,1.93.12,2.81a5,5,0,0,0,.71,2.25,4,4,0,0,0,1.84,1.49,8.83,8.83,0,0,0,3.5.56h21.31a1.51,1.51,0,0,1,1.28.5,1.94,1.94,0,0,1,.38,1.18c0,.32,0,.78.09,1.39a11.06,11.06,0,0,1,0,1.82,3.53,3.53,0,0,1-.44,1.56,1.44,1.44,0,0,1-1.34.65h-21.6a21.26,21.26,0,0,1-7.45-1.1,10.42,10.42,0,0,1-4.48-3.08,10.77,10.77,0,0,1-2.17-4.75,31.39,31.39,0,0,1-.56-6.14v-9.46a32.3,32.3,0,0,1,.53-6,10.71,10.71,0,0,1,2.14-4.75,10.49,10.49,0,0,1,4.48-3.12,21,21,0,0,1,7.51-1.13Z"/><path class="cls-6" d="M399.91,210.9a21.81,21.81,0,0,1,7.92,1.23,11.7,11.7,0,0,1,4.9,3.38,12.4,12.4,0,0,1,2.46,5.09,28.14,28.14,0,0,1,.68,6.34v7.49a28.38,28.38,0,0,1-.68,6.38,12.26,12.26,0,0,1-2.46,5.07,12,12,0,0,1-4.9,3.36,22,22,0,0,1-7.92,1.22H379.67a6.51,6.51,0,0,1-1.75-.26,6.14,6.14,0,0,1-1.66-.75,4.7,4.7,0,0,1-1.25-1.13,2.22,2.22,0,0,1-.51-1.41V214.17a2.7,2.7,0,0,1,1.4-2.38,6,6,0,0,1,3.29-.89Zm-.18,32.46a10.29,10.29,0,0,0,4-.63,4.76,4.76,0,0,0,2.2-1.75,6.37,6.37,0,0,0,.95-2.62,23,23,0,0,0,.21-3.21v-8.93a23,23,0,0,0-.21-3.22,6.14,6.14,0,0,0-.95-2.59,5,5,0,0,0-2.2-1.76,10.09,10.09,0,0,0-4-.64H383.29v25.35Z"/><path class="cls-6" d="M459.43,210.9a2.77,2.77,0,0,1,1,.29c.44.19.65.66.65,1.39v3.75c0,.73-.21,1.2-.65,1.39a2.77,2.77,0,0,1-1,.29H425.31a2.64,2.64,0,0,1-1-.27c-.42-.17-.63-.63-.63-1.37v-3.74q0-1.15.63-1.44a2.56,2.56,0,0,1,1-.29ZM432.61,239a3.64,3.64,0,0,0,1.57,3.4,8.13,8.13,0,0,0,4.3,1h20.89a1.63,1.63,0,0,1,1.34.48,1.75,1.75,0,0,1,.38,1.15v3.84a1.75,1.75,0,0,1-.38,1.15,1.63,1.63,0,0,1-1.34.48H438.3a22,22,0,0,1-7.09-1,10.79,10.79,0,0,1-4.48-2.81,10.3,10.3,0,0,1-2.34-4.39,22.19,22.19,0,0,1-.69-5.74V230.2a3.23,3.23,0,0,1,.24-1.18,2.59,2.59,0,0,1,.8-1.05,4.51,4.51,0,0,1,1.49-.75,7.79,7.79,0,0,1,2.28-.28h30.63a1.54,1.54,0,0,1,1.27.48,1.76,1.76,0,0,1,.39,1.15v3.79a1.88,1.88,0,0,1-.39,1.18,1.52,1.52,0,0,1-1.27.5H432.61Z"/></g></g></svg>