<svg xmlns="http://www.w3.org/2000/svg" xmlns:xlink="http://www.w3.org/1999/xlink" viewBox="0 0 500 500"><defs><style>.cls-1{fill:url(#linear-gradient);}.cls-2{fill:url(#linear-gradient-2);}.cls-3{fill:url(#linear-gradient-3);}.cls-4{fill:url(#linear-gradient-4);}.cls-5{fill:url(#linear-gradient-5);}.cls-6{fill:url(#linear-gradient-6);}.cls-7{fill:#41d2f2;}</style><linearGradient id="linear-gradient" x1="817.69" y1="-349.78" x2="-106.85" y2="627.03" gradientUnits="userSpaceOnUse"><stop offset="0" stop-color="#012840"/><stop offset="1" stop-color="#0d0d0d"/></linearGradient><linearGradient id="linear-gradient-2" x1="325.73" y1="184.99" x2="191.07" y2="259.43" gradientUnits="userSpaceOnUse"><stop offset="0.21" stop-color="#41d2f2"/><stop offset="0.52" stop-color="#0367a6"/><stop offset="0.7" stop-color="#024873"/><stop offset="0.89" stop-color="#012840"/></linearGradient><linearGradient id="linear-gradient-3" x1="169.53" y1="249.21" x2="337.88" y2="232.7" gradientUnits="userSpaceOnUse"><stop offset="0" stop-color="#012840"/><stop offset="0.11" stop-color="#024873"/><stop offset="0.33" stop-color="#0367a6"/><stop offset="0.72" stop-color="#41d2f2"/><stop offset="0.99" stop-color="#41d2f2"/><stop offset="1" stop-color="#41d2f2"/></linearGradient><linearGradient id="linear-gradient-4" x1="185.01" y1="231.29" x2="291.64" y2="180.05" xlink:href="#linear-gradient-3"/><linearGradient id="linear-gradient-5" x1="234.22" y1="203.84" x2="260.45" y2="196.29" xlink:href="#linear-gradient-3"/><linearGradient id="linear-gradient-6" x1="228.98" y1="206.91" x2="255.22" y2="199.35" xlink:href="#linear-gradient-3"/></defs><g id="Layer_2" data-name="Layer 2"><g id="Layer_1-2" data-name="Layer 1"><rect class="cls-1" width="500" height="500"/><polygon class="cls-2" points="242.32 223.35 242.32 223.34 239.12 221.5 235.92 219.65 232.72 217.81 229.52 215.96 229.52 215.95 226.31 214.11 223.12 212.26 219.91 210.41 216.71 208.57 213.51 206.72 210.31 204.87 207.11 203.02 207.11 214.11 210.31 215.95 213.51 217.81 216.71 219.65 219.91 221.5 223.12 223.34 226.31 225.19 229.52 227.04 232.72 228.89 235.92 230.74 239.12 232.58 239.12 239.98 235.92 238.13 232.72 236.28 229.52 234.44 226.31 232.58 223.12 230.74 219.91 228.89 216.71 227.04 213.51 225.2 210.31 223.34 207.11 221.5 207.11 251.07 210.31 252.92 213.51 254.76 216.71 256.61 216.71 238.13 219.91 239.98 223.12 241.82 226.31 247.36 226.31 247.37 226.32 247.38 229.52 252.91 229.52 252.92 229.52 252.92 232.72 258.46 235.92 264 239.12 269.55 242.32 271.39 245.52 273.24 248.72 275.09 248.72 267.7 245.52 262.15 245.52 262.15 242.32 256.62 239.12 251.06 242.32 252.92 245.52 254.76 248.72 256.61 248.72 227.04 245.52 225.2 242.32 223.35"/><polygon class="cls-3" points="268.25 228.89 271.44 227.04 274.65 225.19 277.85 223.34 281.05 221.5 284.25 219.65 287.45 217.8 290.65 215.95 293.85 214.11 293.85 203.02 290.65 204.87 287.45 206.71 284.25 208.57 281.05 210.41 277.85 212.26 274.65 214.11 271.44 215.95 271.44 215.96 268.25 217.81 265.04 219.65 261.84 221.5 258.64 223.34 255.44 225.2 252.24 227.04 252.24 275.09 255.44 273.24 258.64 271.39 261.84 269.55 265.04 267.7 268.25 265.85 271.44 264 274.65 262.15 277.85 260.31 281.05 258.46 284.25 256.61 287.45 254.76 290.65 252.92 293.85 251.07 293.85 239.98 290.65 241.82 287.45 243.67 284.25 245.52 281.05 247.37 277.85 249.22 274.65 251.06 271.44 252.92 268.25 254.76 261.84 258.45 261.84 232.58 268.25 228.89"/><path class="cls-4" d="M256.88,220.15l3.21-1.85,3.19-1.84,3.21-1.85,3.2-1.85,3.19-1.85,3.21-1.84,3.2-1.85,3.2-1.85,3.2-1.85,3.2-1.85,3.2-1.84-3.2-1.85-3.2-1.85h0l-6.39-3.7-3.2-1.84-3.21-1.86-3.19-1.84-3.2-1.85-3.21-1.85-3.19-1.84-3.21-1.86-3.2-1.84-3.2-1.85-3.2,1.85-3.2,1.84h0l-3.2,1.86-3.2,1.84L234.47,185l-3.19,1.85-3.2,1.84h0l-3.2,1.86-3.2,1.84-3.2,1.85-3.19,1.85L212.07,198l-3.2,1.85,6.41,3.69,3.19,1.85,3.2,1.85,3.2,1.85,3.2,1.84,3.21,1.85,3.19,1.85,3.21,1.85,3.2,1.84,3.2,1.85,3.2,1.85,3.2,1.85,3.2-1.85Zm-12.8-7.39-3.2-1.85-3.2-1.84-3.2-1.86-3.2-1.84-3.2-1.85v-3.69h0v-3.7l3.2-1.85,3.21-1.85,3.2-1.85,3.19-1.85,3.21-1.84h12.8l3.21,1.84,3.19,1.86h0l3.2,1.84,6.4,3.7v7.39l-3.2,1.85-3.19,1.84h0l-3.2,1.85-3.2,1.85-3.2,1.85Z"/><polygon class="cls-5" points="256.38 196.53 256.38 198.37 256.37 198.38 256.38 198.39 256.38 202.08 259.58 203.93 262.77 202.08 262.77 194.69 259.58 192.84 246.77 192.84 243.58 194.69 246.77 196.53 256.38 196.53"/><polygon class="cls-6" points="254.2 203.34 244.59 203.34 244.59 201.49 244.6 197.79 241.4 195.95 238.19 197.8 238.19 205.19 241.39 207.03 247.79 207.03 247.79 207.04 254.19 207.04 257.4 205.19 254.2 203.34"/><path class="cls-7" d="M325.52,304.19l-9.95-7.26a6.12,6.12,0,0,0-1.42-.78h0c0,3.76,2.06,7.38,5.74,10.07l1.43,1a.17.17,0,0,1,.08.14.19.19,0,0,1-.08.15l-1.42,1c-3.69,2.7-5.75,6.31-5.75,10.08a6.48,6.48,0,0,0,1.42-.77l9.95-7.28A3.76,3.76,0,0,0,325.52,304.19Z"/><path class="cls-7" d="M296.84,304.19a3.76,3.76,0,0,0,0,6.44l9.94,7.28a7.31,7.31,0,0,0,1.43.78c0-3.77-2.06-7.38-5.75-10.08L301,307.56a.19.19,0,0,1-.08-.15.17.17,0,0,1,.08-.14l1.44-1c3.68-2.7,5.74-6.31,5.74-10.08h0a6.86,6.86,0,0,0-1.43.79Z"/><path class="cls-7" d="M136.51,309.29c.14.16.38.47.71.94l1.19,1.61,1.4,1.91,1.35,1.89c.42.59.76,1.09,1,1.5a2.32,2.32,0,0,1,.39.78.78.78,0,0,1-.17.52.7.7,0,0,1-.6.22h-3.72a1.4,1.4,0,0,1-.64-.12,1.28,1.28,0,0,1-.44-.43l-6.12-8.74h-7.13v8.33a1,1,0,0,1-.22.67.85.85,0,0,1-.72.29h-3.08a.91.91,0,0,1-.74-.29,1,1,0,0,1-.24-.67V306.25a1,1,0,0,1,.22-.65.91.91,0,0,1,.76-.28h14.7a3.15,3.15,0,0,0,1.23-.2,1.66,1.66,0,0,0,.7-.56,2.38,2.38,0,0,0,.32-.82,6.1,6.1,0,0,0,0-2,2.38,2.38,0,0,0-.32-.82,1.52,1.52,0,0,0-.7-.56,3,3,0,0,0-1.23-.21h-14.7a.94.94,0,0,1-.76-.27,1,1,0,0,1-.22-.66v-2.16a1.08,1.08,0,0,1,.22-.67.91.91,0,0,1,.76-.28H135.3a8.24,8.24,0,0,1,3.17.52,4.77,4.77,0,0,1,2,1.42,5.3,5.3,0,0,1,1,2.1,10.64,10.64,0,0,1,.31,2.57,12.11,12.11,0,0,1-.22,2.26,5.57,5.57,0,0,1-.81,2,5,5,0,0,1-1.61,1.51A6.29,6.29,0,0,1,136.51,309.29Z"/><path class="cls-7" d="M169.7,296.14a.87.87,0,0,1,.72.27,1,1,0,0,1,.22.66v13a18.5,18.5,0,0,1-.3,3.46,6.15,6.15,0,0,1-1.2,2.71A5.81,5.81,0,0,1,166.6,318a12.17,12.17,0,0,1-4.3.63h-7.61a12.17,12.17,0,0,1-4.3-.63,5.81,5.81,0,0,1-2.54-1.76,6.15,6.15,0,0,1-1.2-2.71,18.5,18.5,0,0,1-.3-3.46v-13a1,1,0,0,1,.22-.66.92.92,0,0,1,.76-.27h3.07a.89.89,0,0,1,.73.27,1,1,0,0,1,.22.66v13.47a15.78,15.78,0,0,0,.07,1.59,3.05,3.05,0,0,0,.4,1.3,2.29,2.29,0,0,0,1.05.87,5.05,5.05,0,0,0,2,.31h7.3a5,5,0,0,0,2-.31,2.2,2.2,0,0,0,1-.86,3.05,3.05,0,0,0,.38-1.3c.05-.5.07-1,.07-1.6V297.07a1,1,0,0,1,.22-.66.89.89,0,0,1,.73-.27Z"/><path class="cls-7" d="M198.82,301.58v1.47a6.93,6.93,0,0,1-.15,1.45,5.18,5.18,0,0,1-.49,1.35,3.92,3.92,0,0,1-1.05,1.22,4,4,0,0,1,1.47,1.86,6.39,6.39,0,0,1,.39,2.21c0,.84,0,1.7-.05,2.59a6.35,6.35,0,0,1-.54,2.42,4.14,4.14,0,0,1-1.61,1.8,6,6,0,0,1-3.21.71h-15.2a3.62,3.62,0,0,1-1-.15,3.5,3.5,0,0,1-.94-.42,2.78,2.78,0,0,1-.71-.65,1.27,1.27,0,0,1-.29-.8V298a1.54,1.54,0,0,1,.79-1.36,3.49,3.49,0,0,1,1.88-.5h15a8.3,8.3,0,0,1,2.75.39,4.51,4.51,0,0,1,1.76,1.11,4.14,4.14,0,0,1,.94,1.71A7.72,7.72,0,0,1,198.82,301.58Zm-18.38,13H192.2a2,2,0,0,0,1.47-.39A1.87,1.87,0,0,0,194,313v-1.86a1.64,1.64,0,0,0-.5-1.37,2.91,2.91,0,0,0-1.69-.38h-6.56a1.23,1.23,0,0,1-.79-.26.78.78,0,0,1-.32-.64V306.2a.8.8,0,0,1,.32-.65,1.23,1.23,0,0,1,.79-.26h6.56a3.31,3.31,0,0,0,1.64-.31,1.36,1.36,0,0,0,.52-1.27v-1.89a1.86,1.86,0,0,0-.35-1.21,1.83,1.83,0,0,0-1.44-.43H180.44Z"/><path class="cls-7" d="M221.6,309.29c.13.16.37.47.71.94l1.18,1.61,1.4,1.91c.48.67.94,1.3,1.35,1.89s.76,1.09,1,1.5a2.42,2.42,0,0,1,.38.78.83.83,0,0,1-.16.52.73.73,0,0,1-.61.22h-3.72a1.43,1.43,0,0,1-.64-.12,1.28,1.28,0,0,1-.44-.43L216,309.37h-7.13v8.33a1,1,0,0,1-.22.67.84.84,0,0,1-.72.29H204.8a.91.91,0,0,1-.74-.29,1,1,0,0,1-.24-.67V306.25a1,1,0,0,1,.22-.65.91.91,0,0,1,.76-.28h14.7a3.15,3.15,0,0,0,1.23-.2,1.66,1.66,0,0,0,.7-.56,2.38,2.38,0,0,0,.32-.82,6.1,6.1,0,0,0,0-2,2.38,2.38,0,0,0-.32-.82,1.52,1.52,0,0,0-.7-.56,3,3,0,0,0-1.23-.21H204.8a.94.94,0,0,1-.76-.27,1,1,0,0,1-.22-.66v-2.16a1.14,1.14,0,0,1,.22-.67.91.91,0,0,1,.76-.28h15.58a8.33,8.33,0,0,1,3.18.52,4.8,4.8,0,0,1,2,1.42,5.3,5.3,0,0,1,1,2.1,10.17,10.17,0,0,1,.31,2.57,12.11,12.11,0,0,1-.22,2.26,5.57,5.57,0,0,1-.81,2,5,5,0,0,1-1.61,1.51A6.24,6.24,0,0,1,221.6,309.29Z"/><path class="cls-7" d="M235.82,296.14a1.54,1.54,0,0,1,.58.16c.24.11.37.38.37.79v20.64c0,.42-.13.68-.37.79a1.6,1.6,0,0,1-.58.17h-3.11a1.62,1.62,0,0,1-.57-.17c-.25-.11-.37-.37-.37-.79V297.09c0-.41.12-.68.37-.79a1.55,1.55,0,0,1,.57-.16Z"/><path class="cls-7" d="M265.52,317.46a.77.77,0,0,1,.24.49c0,.47-.26.71-.78.71h-3.92a1.45,1.45,0,0,1-.72-.12,2.67,2.67,0,0,1-.46-.45l-6.83-7.82-6.86,7.84a2.24,2.24,0,0,1-.49.43,1.47,1.47,0,0,1-.69.12h-3.72c-.49,0-.74-.22-.74-.66a.82.82,0,0,1,.24-.54l9.29-10.64-8.38-9.48a.87.87,0,0,1-.2-.55c0-.43.25-.65.74-.65h3.92a1.64,1.64,0,0,1,.69.12,1.35,1.35,0,0,1,.49.42l6,7,6.36-7a1.93,1.93,0,0,1,.49-.42,1.47,1.47,0,0,1,.69-.12h3.72c.51,0,.77.22.77.65a.73.73,0,0,1-.23.55L256.47,307Z"/><path class="cls-7" d="M289.85,296.14a.87.87,0,0,1,.73.28,1.14,1.14,0,0,1,.22.67,6.81,6.81,0,0,0,.05.77,5.92,5.92,0,0,1,0,1,2.08,2.08,0,0,1-.25.9.8.8,0,0,1-.76.39H277.72a5.23,5.23,0,0,0-2,.3,2.16,2.16,0,0,0-1.05.85,2.93,2.93,0,0,0-.41,1.27c0,.49-.06,1-.06,1.6v6.37c0,.56,0,1.1.06,1.6a2.81,2.81,0,0,0,.41,1.28,2.22,2.22,0,0,0,1.05.85,5,5,0,0,0,2,.31h12.13a.87.87,0,0,1,.73.29,1.12,1.12,0,0,1,.22.67,6.85,6.85,0,0,0,.05.79,6,6,0,0,1,0,1,1.86,1.86,0,0,1-.25.89.81.81,0,0,1-.76.37h-12.3a12,12,0,0,1-4.24-.63,6,6,0,0,1-2.55-1.75,6,6,0,0,1-1.23-2.7,17.27,17.27,0,0,1-.33-3.5v-5.39a18.29,18.29,0,0,1,.31-3.43,6.12,6.12,0,0,1,1.21-2.7,6,6,0,0,1,2.56-1.78,11.82,11.82,0,0,1,4.27-.64Z"/><path class="cls-7" d="M346.42,296.14a12.31,12.31,0,0,1,4.51.7,6.62,6.62,0,0,1,2.79,1.92,7,7,0,0,1,1.4,2.9,15.79,15.79,0,0,1,.39,3.61v4.26a16.06,16.06,0,0,1-.39,3.64,6.81,6.81,0,0,1-1.4,2.88,6.7,6.7,0,0,1-2.79,1.91,12.31,12.31,0,0,1-4.51.7H334.9a3.62,3.62,0,0,1-1-.15,3.5,3.5,0,0,1-.94-.42,2.78,2.78,0,0,1-.71-.65,1.27,1.27,0,0,1-.29-.8V298a1.54,1.54,0,0,1,.79-1.36,3.49,3.49,0,0,1,1.88-.5Zm-.1,18.47a5.86,5.86,0,0,0,2.28-.35,2.75,2.75,0,0,0,1.25-1,3.59,3.59,0,0,0,.54-1.49,13,13,0,0,0,.12-1.83v-5.08a13,13,0,0,0-.12-1.83,3.5,3.5,0,0,0-.54-1.48,2.88,2.88,0,0,0-1.25-1,5.82,5.82,0,0,0-2.28-.37H337v14.43Z"/><path class="cls-7" d="M380.31,296.14a1.54,1.54,0,0,1,.58.16c.24.11.37.38.37.79v2.14c0,.42-.13.68-.37.79a1.54,1.54,0,0,1-.58.16H360.88a1.52,1.52,0,0,1-.55-.15q-.36-.15-.36-.78v-2.13c0-.44.12-.71.36-.82a1.38,1.38,0,0,1,.55-.16Zm-15.27,16a2.09,2.09,0,0,0,.9,1.94,4.7,4.7,0,0,0,2.44.54h11.9a.94.94,0,0,1,.76.28,1,1,0,0,1,.22.65v2.19a1.07,1.07,0,0,1-.22.66.94.94,0,0,1-.76.27h-12a12.46,12.46,0,0,1-4-.56,6.1,6.1,0,0,1-2.56-1.6,5.92,5.92,0,0,1-1.33-2.5,12.64,12.64,0,0,1-.39-3.27v-3.6a1.79,1.79,0,0,1,.14-.67,1.54,1.54,0,0,1,.45-.61,2.7,2.7,0,0,1,.85-.42,4.39,4.39,0,0,1,1.3-.16h17.43a.89.89,0,0,1,.73.27,1,1,0,0,1,.22.66v2.16a1.08,1.08,0,0,1-.22.67.87.87,0,0,1-.73.28H365Z"/></g></g></svg>